<svg width="256" height="187" viewBox="0 0 256 187" fill="none" xmlns="http://www.w3.org/2000/svg">
<g clip-path="url(#clip0)">
<path opacity="0.1" d="M83.5024 118.65C91.9692 115.332 105.26 114.655 117.358 114.921C155.358 115.75 189.66 123.814 219.329 132.936C230.071 136.24 240.645 139.8 247.618 144.348C261.811 153.605 257.601 166.43 237.866 174.057C231.15 176.652 223.011 178.649 214.653 180.403C199.79 183.54 183.764 186.055 166.898 186.78C154.873 187.29 142.698 186.875 130.743 186.162C97.339 184.163 64.5531 179.772 37.0715 172.225C25.0176 168.922 13.6572 164.814 8.69498 159.466C3.73272 154.118 6.90508 147.347 19.2137 144.181C24.3069 142.873 30.3897 142.281 36.3488 141.728C45.1188 140.911 54.0296 140.104 61.9435 138.444C70.1193 136.728 79.7989 133.41 78.1811 129.614C76.4373 125.539 75.0452 121.963 83.5024 118.65Z" fill="#241C7D"/>
<path opacity="0.1" d="M122.087 7.28114L121.163 60.6876C121.163 60.6876 154.613 60.6876 183.072 69.8948L183.628 15.9277C183.628 15.9277 137.98 5.07239 122.087 7.28114Z" fill="black"/>
<path d="M121.602 6.55605L120.678 59.9625C120.678 59.9625 154.128 59.9625 182.587 69.1697L183.143 15.2026C183.143 15.2026 137.495 4.34729 121.602 6.55605Z" fill="#F5F5FB"/>
<path opacity="0.1" d="M107.841 7.24002L108.765 60.6465C108.765 60.6465 75.3144 60.6465 46.8554 69.8537L46.3 15.9011C46.3 15.9011 91.9474 5.03127 107.841 7.24002Z" fill="black"/>
<path d="M108.326 6.51517L109.25 59.9216C109.25 59.9216 75.7995 59.9216 47.3406 69.1288L46.7852 15.1762C46.7852 15.1762 92.4326 4.30641 108.326 6.51517Z" fill="#F5F5FB"/>
<path opacity="0.1" d="M191.702 23.5422V76.3905C191.702 76.3905 202.616 75.1024 225.521 103.275L227.555 50.4267C227.555 50.4267 203.714 24.8327 191.702 23.5422Z" fill="black"/>
<path d="M191.216 23.0591V75.9073C191.216 75.9073 202.13 74.6193 225.035 102.792L227.07 49.9436C227.07 49.9436 203.229 24.3495 191.216 23.0591Z" fill="#F5F5FB"/>
<path opacity="0.1" d="M38.8201 25.1106V77.9613C38.8201 77.9613 27.906 76.6732 5.00107 104.846L2.96863 51.9975C2.96863 51.9975 26.8074 26.4035 38.8201 25.1106Z" fill="black"/>
<path d="M39.3054 24.3857V77.2364C39.3054 77.2364 28.3914 75.9484 5.48642 104.121L3.45398 51.2726C3.45398 51.2726 27.2927 25.6786 39.3054 24.3857Z" fill="#F5F5FB"/>
<path d="M162.028 113.502C162.028 115.302 150.553 125.706 124.435 125.706C98.3163 125.706 84.1741 115.665 84.1741 113.865C84.1741 112.064 98.8014 116.523 124.92 116.523C151.038 116.523 162.028 111.699 162.028 113.502Z" fill="#F7F7FD"/>
<path opacity="0.1" d="M76.6677 88.7056C78.2027 88.7056 79.4471 88.5357 79.4471 88.3262C79.4471 88.1166 78.2027 87.9468 76.6677 87.9468C75.1326 87.9468 73.8882 88.1166 73.8882 88.3262C73.8882 88.5357 75.1326 88.7056 76.6677 88.7056Z" fill="#241C7D"/>
<path opacity="0.1" d="M66.0225 89.781C67.5576 89.781 68.802 89.6112 68.802 89.4016C68.802 89.1921 67.5576 89.0222 66.0225 89.0222C64.4875 89.0222 63.2431 89.1921 63.2431 89.4016C63.2431 89.6112 64.4875 89.781 66.0225 89.781Z" fill="#241C7D"/>
<path opacity="0.1" d="M53.4884 88.3264C55.0235 88.3264 56.2679 88.1566 56.2679 87.947C56.2679 87.7375 55.0235 87.5676 53.4884 87.5676C51.9534 87.5676 50.709 87.7375 50.709 87.947C50.709 88.1566 51.9534 88.3264 53.4884 88.3264Z" fill="#241C7D"/>
<path opacity="0.1" d="M70.2842 92.7339C71.3746 92.7339 72.2585 92.6128 72.2585 92.4633C72.2585 92.3138 71.3746 92.1926 70.2842 92.1926C69.1939 92.1926 68.31 92.3138 68.31 92.4633C68.31 92.6128 69.1939 92.7339 70.2842 92.7339Z" fill="#241C7D"/>
<path opacity="0.1" d="M59.2366 92.4634C60.3269 92.4634 61.2108 92.3423 61.2108 92.1928C61.2108 92.0433 60.3269 91.9221 59.2366 91.9221C58.1462 91.9221 57.2623 92.0433 57.2623 92.1928C57.2623 92.3423 58.1462 92.4634 59.2366 92.4634Z" fill="#241C7D"/>
<path d="M65.9647 89.317C65.9647 89.317 69.8598 76.5888 65.3535 71.4923C61.9822 67.6789 58.1502 68.126 56.4525 68.6093C56.009 68.7268 55.5965 68.939 55.2435 69.2311C54.8905 69.5232 54.6054 69.8882 54.4079 70.3009C53.8088 71.5889 53.9228 73.6841 58.1478 76.12C65.2274 80.204 65.6663 85.8081 65.6663 85.8081L65.9647 89.317Z" fill="#241C7D"/>
<path d="M57.0536 70.4119C57.0536 70.4119 68.5401 73.9908 65.9644 89.3168" stroke="#565987" stroke-miterlimit="10"/>
<path d="M63.7625 71.6953C63.7625 71.6953 62.1811 72.7562 62.6832 74.3535" stroke="#565987" stroke-miterlimit="10"/>
<path d="M58.2059 72.6398C58.2059 72.6398 59.1761 71.6587 60.3475 72.2" stroke="#565987" stroke-miterlimit="10"/>
<path d="M62.7581 77.5676C62.7581 77.5676 64.4558 76.7097 64.8948 77.7851" stroke="#565987" stroke-miterlimit="10"/>
<path d="M66.9467 79.3584C66.9467 79.3584 65.6709 79.2569 65.6491 79.8635" stroke="#565987" stroke-miterlimit="10"/>
<path d="M66.1222 89.4184C66.1222 89.4184 61.5577 80.1677 60.3013 80.3707C59.7071 80.4674 59.433 81.0498 59.3069 81.637C59.1509 82.3946 59.2357 83.1819 59.5495 83.8893C60.2067 85.3682 61.9457 88.1835 66.1222 89.4184Z" fill="#241C7D"/>
<path d="M60.3329 82.1252C60.3329 82.1252 65.123 89.0463 66.0495 89.3508" stroke="#565987" stroke-miterlimit="10"/>
<path d="M59.8986 83.2053H61.0167" stroke="#565987" stroke-miterlimit="10"/>
<path d="M61.2378 85.738L62.9889 85.813" stroke="#565987" stroke-miterlimit="10"/>
<path d="M62.3049 83.7129L62.1133 84.6215" stroke="#565987" stroke-miterlimit="10"/>
<path d="M64.1674 86.48L64.1335 87.3065" stroke="#565987" stroke-miterlimit="10"/>
<path d="M65.9861 89.4184C65.9861 89.4184 70.5482 80.1677 71.807 80.3707C72.4036 80.4674 72.6777 81.0498 72.8014 81.637C72.9562 82.3947 72.8715 83.1816 72.5588 83.8893C71.9016 85.3682 70.1626 88.1835 65.9861 89.4184Z" fill="#241C7D"/>
<path d="M71.7685 82.1252C71.7685 82.1252 66.9784 89.0463 66.0544 89.3508" stroke="#565987" stroke-miterlimit="10"/>
<path d="M72.2098 83.2053H71.0917" stroke="#565987" stroke-miterlimit="10"/>
<path d="M70.8711 85.738L69.1176 85.813" stroke="#565987" stroke-miterlimit="10"/>
<path d="M69.804 83.7129L69.9956 84.6215" stroke="#565987" stroke-miterlimit="10"/>
<path d="M67.9412 86.48L67.9752 87.3065" stroke="#565987" stroke-miterlimit="10"/>
<path d="M58.1499 91.5789C58.0255 91.4777 57.9349 91.3411 57.8903 91.1874C57.8699 91.1106 57.8769 91.029 57.91 90.9568C57.9432 90.8845 58.0005 90.8259 58.0722 90.7911C58.2372 90.7258 58.4166 90.8418 58.5573 90.9578C58.615 91.0255 58.6862 91.0804 58.7663 91.1191C58.8465 91.1578 58.9339 91.1794 59.023 91.1826C58.9321 91.1004 58.8641 90.9963 58.8254 90.8803C58.7868 90.7644 58.7788 90.6404 58.8023 90.5204C58.8117 90.4708 58.8334 90.4243 58.8653 90.3851C58.9575 90.286 59.1248 90.3295 59.2364 90.4069C59.5881 90.6485 59.6851 91.1318 59.6875 91.5595C59.7065 91.399 59.7065 91.2368 59.6875 91.0762C59.6803 90.9968 59.6929 90.9169 59.7242 90.8435C59.7556 90.7702 59.8046 90.7057 59.867 90.6558C59.9504 90.611 60.044 90.5885 60.1386 90.5905C60.2173 90.5793 60.2975 90.5847 60.3739 90.6064C60.4504 90.628 60.5214 90.6654 60.5825 90.7162C60.6405 90.7959 60.6702 90.8925 60.6672 90.9909C60.6641 91.0893 60.6283 91.1839 60.5655 91.2599C60.4346 91.4066 60.2796 91.53 60.1071 91.6248C59.9752 91.702 59.8631 91.8087 59.7797 91.9365C59.7691 91.9539 59.761 91.9726 59.7554 91.9921H58.761C58.5404 91.881 58.335 91.7421 58.1499 91.5789Z" fill="#241C7D"/>
<path d="M75.5396 87.8525C75.4154 87.7522 75.3249 87.6164 75.2801 87.4634C75.2595 87.3863 75.2664 87.3044 75.2996 87.2317C75.3327 87.159 75.3901 87.1 75.462 87.0647C75.5507 87.0475 75.6423 87.0541 75.7275 87.0839C75.8128 87.1136 75.8886 87.1654 75.9471 87.2339C76.0045 87.3017 76.0757 87.3566 76.1559 87.3949C76.2362 87.4333 76.3238 87.4541 76.4128 87.4562C76.3217 87.3742 76.2536 87.2701 76.2149 87.1541C76.1762 87.0381 76.1683 86.914 76.1921 86.7941C76.2004 86.7448 76.2222 86.6988 76.2551 86.6612C76.3473 86.5621 76.5146 86.6031 76.6262 86.6805C76.9779 86.9221 77.0749 87.4055 77.0773 87.8356C77.0961 87.675 77.0961 87.5129 77.0773 87.3523C77.0701 87.2729 77.0827 87.1929 77.114 87.1196C77.1453 87.0462 77.1944 86.9817 77.2568 86.9318C77.3399 86.8867 77.4338 86.865 77.5284 86.869C77.6071 86.8572 77.6874 86.8623 77.764 86.8839C77.8405 86.9056 77.9116 86.9434 77.9723 86.9946C78.0304 87.0738 78.0604 87.1701 78.0573 87.2682C78.0542 87.3663 78.0183 87.4605 77.9553 87.536C77.8244 87.6826 77.6694 87.806 77.4969 87.9008C77.3655 87.9788 77.2536 88.0854 77.1695 88.2126C77.1589 88.23 77.1508 88.2486 77.1452 88.2682H76.1508C75.9295 88.1572 75.724 88.0174 75.5396 87.8525Z" fill="#241C7D"/>
<path d="M69.7432 91.5789C69.6188 91.4777 69.5283 91.3411 69.4837 91.1874C69.4637 91.1106 69.4709 91.0292 69.504 90.9571C69.5371 90.8849 69.5942 90.8263 69.6656 90.7911C69.8329 90.7258 70.01 90.8418 70.1506 90.9578C70.2084 91.0254 70.2796 91.0803 70.3598 91.1189C70.4399 91.1576 70.5273 91.1793 70.6163 91.1826C70.5257 91.1003 70.458 90.9961 70.4197 90.8801C70.3815 90.7641 70.374 90.6402 70.398 90.5204C70.4054 90.4706 70.4264 90.4238 70.4586 90.3851C70.5508 90.286 70.7182 90.3295 70.8297 90.4069C71.1814 90.6485 71.2808 91.1318 71.2833 91.5595C71.3009 91.3989 71.3009 91.2369 71.2833 91.0762C71.276 90.9968 71.2887 90.9169 71.32 90.8435C71.3513 90.7702 71.4003 90.7057 71.4627 90.6558C71.5771 90.6033 71.7031 90.5813 71.8285 90.5919C71.9539 90.6025 72.0744 90.6453 72.1782 90.7162C72.237 90.7956 72.2673 90.8923 72.2642 90.991C72.2611 91.0896 72.2249 91.1843 72.1612 91.2599C72.0308 91.4071 71.8757 91.5306 71.7028 91.6248C71.5719 91.7033 71.4601 91.8098 71.3754 91.9365C71.3659 91.9544 71.3578 91.973 71.3512 91.9921H70.3592C70.1366 91.8818 69.9295 91.7429 69.7432 91.5789Z" fill="#241C7D"/>
<path d="M53.2996 84.0488C53.2996 84.0488 52.9285 84.5321 53.4718 85.2571C54.015 85.9821 54.4662 86.608 54.2843 87.0647C54.2843 87.0647 53.4621 85.7042 52.7951 85.6848C52.1281 85.6655 52.572 84.8656 53.2996 84.0488Z" fill="#241C7D"/>
<path opacity="0.1" d="M53.2993 84.0488C53.2668 84.0956 53.2415 84.1469 53.2242 84.2011C52.5717 84.9623 52.2249 85.6752 52.8507 85.6921C53.4352 85.709 54.1361 86.7506 54.3059 87.0115C54.3009 87.0321 54.2944 87.0523 54.2865 87.072C54.2865 87.072 53.4643 85.7114 52.7973 85.6921C52.1303 85.6728 52.5717 84.8656 53.2993 84.0488Z" fill="black"/>
<path d="M52.6154 84.6647C52.6154 84.8363 52.6348 84.9741 52.659 84.9741C52.6833 84.9741 52.7002 84.8363 52.7002 84.6647C52.7002 84.4932 52.6784 84.5753 52.6542 84.5753C52.6299 84.5753 52.6154 84.4956 52.6154 84.6647Z" fill="#FFD037"/>
<path d="M52.3779 84.8705C52.5282 84.9527 52.6592 85.001 52.6713 84.9792C52.6835 84.9575 52.5695 84.8753 52.4288 84.7956C52.2881 84.7159 52.3366 84.7714 52.3269 84.7956C52.3172 84.8198 52.2275 84.8004 52.3779 84.8705Z" fill="#FFD037"/>
<path d="M55.2737 84.0488C55.2737 84.0488 55.6472 84.5321 55.1015 85.2571C54.5558 85.9821 54.1095 86.608 54.2914 87.0647C54.2914 87.0647 55.1112 85.7042 55.7806 85.6848C56.45 85.6655 56.0086 84.8656 55.2737 84.0488Z" fill="#241C7D"/>
<path opacity="0.1" d="M55.2738 84.0488C55.3063 84.0956 55.3317 84.1469 55.349 84.2011C56.0014 84.9623 56.3482 85.6752 55.7225 85.6921C55.138 85.709 54.4395 86.7506 54.2673 87.0115C54.2723 87.0321 54.2788 87.0523 54.2867 87.072C54.2867 87.072 55.1064 85.7114 55.7758 85.6921C56.4452 85.6728 56.0087 84.8656 55.2738 84.0488Z" fill="black"/>
<path d="M55.9671 84.6647C55.9671 84.8363 55.9501 84.9741 55.9259 84.9741C55.9016 84.9741 55.8822 84.8363 55.8822 84.6647C55.8822 84.4932 55.9065 84.5753 55.9307 84.5753C55.955 84.5753 55.9671 84.4956 55.9671 84.6647Z" fill="#FFD037"/>
<path d="M56.2096 84.8705C56.0592 84.9527 55.9282 85.001 55.9185 84.9792C55.9088 84.9575 56.0179 84.8753 56.161 84.7956C56.3041 84.7159 56.2532 84.7714 56.2653 84.7956C56.2775 84.8198 56.3527 84.8004 56.2096 84.8705Z" fill="#FFD037"/>
<path d="M55.8486 87.0089C55.8486 87.0089 54.8057 86.9775 54.4929 86.7552C54.18 86.5329 52.8921 86.2719 52.8145 86.6223C52.7369 86.9727 51.2502 88.3985 52.424 88.4082C53.5979 88.4178 55.155 88.2245 55.4678 88.036C55.7807 87.8475 55.8486 87.0089 55.8486 87.0089Z" fill="#A8A8A8"/>
<path opacity="0.2" d="M52.4043 88.2825C53.5781 88.2825 55.1352 88.1013 55.4481 87.9104C55.6906 87.7654 55.7804 87.2458 55.8119 87.0066H55.8483C55.8483 87.0066 55.7804 87.8427 55.4675 88.0336C55.1546 88.2245 53.6 88.4154 52.4237 88.4058C52.0866 88.4058 51.9677 88.2825 51.975 88.1037C52.0211 88.2149 52.152 88.2801 52.4043 88.2825Z" fill="black"/>
<path opacity="0.1" d="M47.3355 121.196C51.9862 121.196 55.7563 120.641 55.7563 119.957C55.7563 119.272 51.9862 118.717 47.3355 118.717C42.6849 118.717 38.9147 119.272 38.9147 119.957C38.9147 120.641 42.6849 121.196 47.3355 121.196Z" fill="#241C7D"/>
<path opacity="0.1" d="M70.8565 131.462C75.5072 131.462 79.2773 130.907 79.2773 130.222C79.2773 129.538 75.5072 128.983 70.8565 128.983C66.2058 128.983 62.4357 129.538 62.4357 130.222C62.4357 130.907 66.2058 131.462 70.8565 131.462Z" fill="#241C7D"/>
<path opacity="0.1" d="M36.2564 143.141C40.9071 143.141 44.6772 142.586 44.6772 141.902C44.6772 141.217 40.9071 140.662 36.2564 140.662C31.6058 140.662 27.8356 141.217 27.8356 141.902C27.8356 142.586 31.6058 143.141 36.2564 143.141Z" fill="#241C7D"/>
<path opacity="0.1" d="M214.677 168.796C219.328 168.796 223.098 168.241 223.098 167.556C223.098 166.871 219.328 166.316 214.677 166.316C210.026 166.316 206.256 166.871 206.256 167.556C206.256 168.241 210.026 168.796 214.677 168.796Z" fill="#241C7D"/>
<path opacity="0.1" d="M119.106 139.652C122.185 139.652 124.682 139.374 124.682 139.031C124.682 138.688 122.185 138.41 119.106 138.41C116.026 138.41 113.53 138.688 113.53 139.031C113.53 139.374 116.026 139.652 119.106 139.652Z" fill="#241C7D"/>
<path opacity="0.1" d="M198.9 107.753C201.979 107.753 204.476 107.475 204.476 107.132C204.476 106.789 201.979 106.511 198.9 106.511C195.82 106.511 193.324 106.789 193.324 107.132C193.324 107.475 195.82 107.753 198.9 107.753Z" fill="#241C7D"/>
<path opacity="0.1" d="M155.484 154.876C158.564 154.876 161.06 154.598 161.06 154.255C161.06 153.912 158.564 153.634 155.484 153.634C152.405 153.634 149.908 153.912 149.908 154.255C149.908 154.598 152.405 154.876 155.484 154.876Z" fill="#241C7D"/>
<path opacity="0.1" d="M107.356 150.778C110.435 150.778 112.932 150.5 112.932 150.157C112.932 149.814 110.435 149.536 107.356 149.536C104.276 149.536 101.78 149.814 101.78 150.157C101.78 150.5 104.276 150.778 107.356 150.778Z" fill="#241C7D"/>
<path opacity="0.1" d="M62.2517 149.166C65.3312 149.166 67.8276 148.888 67.8276 148.545C67.8276 148.202 65.3312 147.924 62.2517 147.924C59.1722 147.924 56.6758 148.202 56.6758 148.545C56.6758 148.888 59.1722 149.166 62.2517 149.166Z" fill="#241C7D"/>
<path opacity="0.1" d="M50.4979 160.292C53.5773 160.292 56.0737 160.014 56.0737 159.671C56.0737 159.328 53.5773 159.05 50.4979 159.05C47.4184 159.05 44.922 159.328 44.922 159.671C44.922 160.014 47.4184 160.292 50.4979 160.292Z" fill="#241C7D"/>
<g opacity="0.1">
<path opacity="0.1" d="M123.401 74.2833C143.778 74.2833 160.296 66.938 160.296 57.8771C160.296 48.8162 143.778 41.4709 123.401 41.4709C103.025 41.4709 86.507 48.8162 86.507 57.8771C86.507 66.938 103.025 74.2833 123.401 74.2833Z" fill="black"/>
<path opacity="0.1" d="M160.936 63.7421C159.304 72.2968 143.175 79.0125 123.515 79.0125C103.683 79.0125 87.4432 72.1784 86.0511 63.5198H85.9128V77.461C92.3982 84.213 106.756 88.9084 123.423 88.9084C140.09 88.9084 154.448 84.213 160.936 77.461V63.7421Z" fill="black"/>
<path opacity="0.1" d="M160.936 80.7067C159.304 89.259 143.175 95.9771 123.515 95.9771C103.683 95.9771 87.4432 89.143 86.0511 80.4819H85.9128V94.4256C92.3982 101.178 106.756 105.871 123.423 105.871C140.09 105.871 154.448 101.178 160.936 94.4256V80.7067Z" fill="black"/>
<path opacity="0.1" d="M160.936 99.3651C159.304 107.92 143.175 114.636 123.515 114.636C103.683 114.636 87.4432 107.804 86.0511 99.1428H85.9128V114.179C85.9122 114.499 85.9783 114.816 86.1069 115.11C86.2355 115.404 86.4237 115.667 86.6598 115.885C93.4508 122.098 107.37 124.531 123.423 124.531C139.477 124.531 153.388 122.098 160.189 115.885C160.425 115.667 160.613 115.404 160.742 115.11C160.871 114.816 160.937 114.499 160.936 114.179V99.3651Z" fill="black"/>
</g>
<path d="M123.402 73.3165C143.778 73.3165 160.296 65.9712 160.296 56.9103C160.296 47.8494 143.778 40.5042 123.402 40.5042C103.025 40.5042 86.5073 47.8494 86.5073 56.9103C86.5073 65.9712 103.025 73.3165 123.402 73.3165Z" fill="#241C7D"/>
<path d="M160.936 62.7755C159.304 71.3302 143.175 78.0459 123.515 78.0459C103.683 78.0459 87.4432 71.2118 86.0511 62.5532H85.9128V76.4945C92.3982 83.2464 106.756 87.9418 123.423 87.9418C140.09 87.9418 154.448 83.2464 160.936 76.4945V62.7755Z" fill="#241C7D"/>
<path d="M160.936 79.7401C159.304 88.2924 143.175 95.0105 123.515 95.0105C103.683 95.0105 87.4432 88.1764 86.0511 79.5154H85.9128V93.459C92.3982 100.211 106.756 104.904 123.423 104.904C140.09 104.904 154.448 100.211 160.936 93.459V79.7401Z" fill="#241C7D"/>
<path d="M160.936 98.3983C159.304 106.953 143.175 113.669 123.515 113.669C103.683 113.669 87.4432 106.837 86.0511 98.176H85.9128V113.212C85.9122 113.532 85.9783 113.849 86.1069 114.143C86.2355 114.437 86.4237 114.701 86.6598 114.918C93.4508 121.131 107.37 123.565 123.423 123.565C139.477 123.565 153.388 121.131 160.189 114.918C160.425 114.701 160.613 114.437 160.742 114.143C160.871 113.849 160.937 113.532 160.936 113.212V98.3983Z" fill="#241C7D"/>
<path opacity="0.1" d="M177.785 140.527C185.42 140.527 191.609 139.417 191.609 138.047C191.609 136.678 185.42 135.568 177.785 135.568C170.15 135.568 163.96 136.678 163.96 138.047C163.96 139.417 170.15 140.527 177.785 140.527Z" fill="#241C7D"/>
<path d="M170.024 106.455C170.722 106.866 171.818 107.134 173.198 106.25L173.186 108.21C173.283 109.553 174.952 114.452 174.952 114.452L176.128 118.48C176.972 121.327 177.408 124.279 177.421 127.248C177.421 128.229 177.513 129.244 177.797 130.007C178.425 131.699 177.554 133.874 177.174 134.676C176.537 134.891 175.889 135.072 175.233 135.22C175.175 135.234 175.117 135.252 175.061 135.273V135.261C175.061 135.261 173.295 135.959 172.51 135.863C171.925 135.793 171.559 136.52 172.025 137.054C171.644 137.17 171.248 137.222 170.851 137.209C170.065 137.112 169.672 138.456 171.144 138.84C172.616 139.224 180.957 138.84 180.957 138.84C181.191 138.723 181.38 138.532 181.493 138.296C181.606 138.061 181.638 137.795 181.583 137.54L182.626 137.496C182.626 137.496 184.098 136.824 182.626 135L182.546 135.058L182.233 134.135V132.89C182.233 132.89 184.098 123.949 183.508 122.903C182.919 121.856 182.606 116.457 182.606 116.457L182.812 110.609C183.344 109.517 183.615 107.801 183.753 106.46C183.954 105.821 184.08 105.161 184.129 104.493C184.154 104.176 184.173 103.848 184.185 103.505C184.193 102.752 184.072 102.003 183.826 101.291C184.492 100.307 185.236 99.3777 186.05 98.5119C186.389 98.1979 186.647 97.8069 186.801 97.3721C186.955 96.9374 187.001 96.472 186.935 96.0156L186.45 92.7508L185.272 87.1927C185.42 85.6485 185.097 84.7592 184.738 84.2565C184.823 83.7563 184.903 83.2585 184.964 82.7558C185.223 80.5772 185.107 78.3705 184.619 76.2311C184.45 75.4867 184.217 74.7207 183.69 74.1552C183.096 73.5124 182.131 73.1233 181.908 72.2848C181.876 72.071 181.831 71.8595 181.772 71.6516C181.556 71.1031 180.877 70.9025 180.28 70.83C179.218 70.7019 177.683 70.6052 176.662 71.0209C175.766 71.4157 175.028 72.098 174.566 72.959C174.336 73.3128 174.25 73.7403 174.324 74.1552C174.36 74.2992 174.416 74.4375 174.491 74.566C174.151 75.4842 174.188 76.4988 174.594 77.39C175 78.2812 175.742 78.977 176.659 79.3267C176.684 79.4016 176.705 79.4741 176.722 79.5442C176.767 79.7164 176.8 79.8917 176.819 80.0686C176.8 80.4069 176.778 80.7476 176.764 81.0884L176.727 81.2261C175.883 81.5986 175.06 82.0165 174.261 82.4779C174.848 83.3431 174.161 86.9921 174.161 86.9921C172.689 87.8548 171.219 90.0636 172.788 92.369C174.358 94.6744 173.475 97.1683 173.475 97.1683L173.232 100.924L173.184 101.675H173.201L173.184 101.96H173.225V102.267C172.536 102.521 171.527 103.029 170.928 103.971C170.644 104.433 170.299 104.855 169.902 105.225C169.81 105.304 169.738 105.404 169.692 105.517C169.647 105.629 169.629 105.751 169.641 105.872C169.653 105.992 169.694 106.109 169.761 106.21C169.827 106.312 169.917 106.396 170.024 106.455ZM181.871 96.4796C181.812 95.8297 181.933 95.1761 182.221 94.5898H182.914C182.935 94.7426 182.963 94.8943 182.999 95.0441C183.198 95.902 182.403 96.3056 181.871 96.4796Z" fill="url(#paint0_linear)"/>
<path d="M182.066 133.695L182.444 134.824L181.217 136.046L177.157 136.998L174.23 136.716L174.419 135.681C174.474 135.459 174.591 135.256 174.755 135.095C174.918 134.934 175.124 134.821 175.348 134.768C176.56 134.488 178.845 133.845 179.328 132.953L182.066 133.695Z" fill="#DB8B8B"/>
<path opacity="0.1" d="M182.066 133.695L182.444 134.824L181.217 136.046L177.157 136.998L174.23 136.716L174.419 135.681C174.474 135.459 174.591 135.256 174.755 135.095C174.918 134.934 175.124 134.821 175.348 134.768C176.56 134.488 178.845 133.845 179.328 132.953L182.066 133.695Z" fill="black"/>
<path d="M175.173 136.423L175.741 135.672L175.173 134.799C175.173 134.799 173.476 135.483 172.719 135.389C171.962 135.295 171.586 136.612 173.003 136.989C174.419 137.366 182.444 136.989 182.444 136.989C182.444 136.989 183.861 136.329 182.444 134.541L181.217 135.483C181.217 135.483 179.139 136.612 178.101 136.423H175.173Z" fill="#C17174"/>
<path d="M172.627 138.023L175.554 138.306L179.614 137.363L180.841 136.14L180.742 135.843L180.601 135.423L180.463 135.012L177.72 134.26C177.581 134.485 177.391 134.675 177.165 134.814C176.274 135.42 174.679 135.858 173.74 136.075C173.7 136.085 173.661 136.097 173.624 136.111C173.441 136.169 173.275 136.269 173.138 136.404C172.975 136.564 172.859 136.766 172.804 136.989L172.627 138.023Z" fill="#DB8B8B"/>
<path opacity="0.1" d="M172.627 138.023L175.554 138.306L179.614 137.364L180.841 136.141L180.742 135.844L179.614 136.706C179.614 136.706 177.536 137.835 176.498 137.646H173.568L174.135 136.895L173.626 136.112C173.443 136.17 173.277 136.27 173.141 136.404C172.977 136.564 172.861 136.767 172.806 136.989L172.627 138.023Z" fill="black"/>
<path d="M173.567 137.74L174.135 136.989L173.567 136.117C173.567 136.117 171.87 136.8 171.113 136.706C170.356 136.612 169.98 137.929 171.397 138.306C172.813 138.683 180.838 138.306 180.838 138.306C180.838 138.306 182.255 137.646 180.838 135.86L179.611 136.8C179.611 136.8 177.533 137.929 176.495 137.74H173.567Z" fill="#C17174"/>
<path d="M175.927 83.1739C175.927 83.1739 180.46 83.6572 179.808 81.7626C179.621 81.229 179.573 80.6572 179.667 80.1C179.784 79.4102 180.057 78.7563 180.467 78.1885L176.218 78.8458C176.474 79.2701 176.668 79.7281 176.795 80.2063C177.293 82.2024 175.927 83.1739 175.927 83.1739Z" fill="#DB8B8B"/>
<path d="M183.671 104.616C183.671 104.616 183.577 108.662 182.633 110.639L182.444 116.378C182.444 116.378 182.725 121.646 183.293 122.68C183.86 123.715 182.066 132.465 182.066 132.465V133.971C182.066 133.971 179.044 135.099 178.185 133.782L179.034 122.586L178.656 107.064L183.671 104.616Z" fill="#474463"/>
<path opacity="0.1" d="M183.671 104.616C183.671 104.616 183.577 108.662 182.633 110.639L182.444 116.378C182.444 116.378 182.725 121.646 183.293 122.68C183.86 123.715 182.066 132.465 182.066 132.465V133.971C182.066 133.971 179.044 135.099 178.185 133.782L179.034 122.586L178.656 107.064L183.671 104.616Z" fill="black"/>
<path d="M185.559 91.6416L186.126 93.1471L186.611 96.3443C186.674 96.7903 186.63 97.245 186.482 97.6706C186.334 98.0963 186.086 98.4808 185.76 98.7923C184.627 99.9208 183.116 102.272 183.116 102.272L181.324 96.9097C181.324 96.9097 183.116 96.627 182.832 95.4042C182.549 94.1814 182.646 91.9243 182.646 91.9243L185.559 91.6416Z" fill="#FF748E"/>
<path opacity="0.05" d="M185.58 91.6199L186.145 93.1254L186.63 96.325C186.694 96.7705 186.651 97.2248 186.503 97.6502C186.356 98.0756 186.108 98.4597 185.782 98.7706C184.646 99.8991 183.138 102.253 183.138 102.253L181.331 96.8832C181.331 96.8832 183.126 96.6005 182.842 95.3777C182.558 94.1549 182.653 91.8954 182.653 91.8954L185.58 91.6199Z" fill="black"/>
<path opacity="0.1" d="M177.167 134.823C178.379 136.723 180.264 135.645 180.599 135.432L180.46 135.021L177.72 134.26C177.582 134.489 177.393 134.682 177.167 134.823Z" fill="black"/>
<path d="M173.378 108.294C173.473 109.611 175.076 114.408 175.076 114.408L176.209 118.357C177.019 121.149 177.438 124.039 177.453 126.946C177.424 127.861 177.547 128.774 177.814 129.65C178.571 131.721 177.06 134.541 177.06 134.541C178.382 136.895 180.647 135.295 180.647 135.295V133.789C180.647 133.789 182.442 125.604 181.969 124.005C181.496 122.405 181.309 118.079 181.309 118.079V110.269C182.821 108.767 183.74 106.774 183.899 104.653C183.921 104.343 183.941 104.019 183.953 103.686C184.028 101.564 182.57 99.0751 182.013 98.1882C181.877 97.9731 181.789 97.8523 181.789 97.8523L173.453 101.149H173.434V101.475V102.185L173.378 108.294Z" fill="#474463"/>
<path opacity="0.1" d="M176.211 78.8458C176.466 79.2701 176.661 79.7281 176.788 80.2063C177.25 80.3808 177.742 80.4613 178.235 80.443C178.728 80.4247 179.213 80.3081 179.66 80.1C179.777 79.4102 180.05 78.7563 180.46 78.1885L176.211 78.8458Z" fill="black"/>
<path d="M178.101 80.2572C180.134 80.2572 181.782 78.6148 181.782 76.5888C181.782 74.5628 180.134 72.9204 178.101 72.9204C176.067 72.9204 174.419 74.5628 174.419 76.5888C174.419 78.6148 176.067 80.2572 178.101 80.2572Z" fill="#DB8B8B"/>
<path opacity="0.1" d="M173.378 102.178H173.42C177.378 102.99 182.35 98.8793 182.35 98.8793C182.216 98.6551 182.101 98.4208 182.005 98.1784C181.869 97.9634 181.782 97.8425 181.782 97.8425L173.446 101.139L173.424 101.467L173.378 102.178Z" fill="black"/>
<path d="M174.418 83.0797C174.418 83.0797 179.706 79.8801 181.403 81.1972L183.766 84.2082C183.766 84.2082 185.277 84.6795 184.995 87.7002L186.128 93.1568L182.732 94.0026C182.732 94.0026 180.751 95.8851 182.357 98.6135C182.357 98.6135 177.351 102.753 173.383 101.905L173.667 97.4849C173.667 97.4849 174.515 95.0369 173.007 92.7798C171.498 90.5227 172.912 88.3575 174.329 87.5117C174.324 87.502 174.983 83.9255 174.418 83.0797Z" fill="#FF748E"/>
<path d="M174.135 102.272C174.135 102.272 172.151 102.649 171.207 104.155C170.935 104.607 170.602 105.021 170.218 105.385C170.132 105.463 170.065 105.56 170.023 105.668C169.982 105.777 169.966 105.894 169.977 106.009C169.989 106.125 170.027 106.236 170.09 106.334C170.152 106.432 170.237 106.514 170.337 106.574C171.086 107.023 172.306 107.299 173.851 106.035C176.507 103.872 174.135 102.272 174.135 102.272Z" fill="#DB8B8B"/>
<path opacity="0.1" d="M177.062 84.8679C177.062 84.8679 178.949 84.6794 179.422 89.5706C179.895 94.4618 180.649 95.5927 180.649 95.5927C180.649 95.5927 181.122 98.1326 179.987 99.6381C178.852 101.144 176.684 104.343 176.684 104.343C176.684 104.343 174.324 105 173.851 102.652L176.779 97.1949C176.779 97.1949 177.249 95.3124 176.116 93.9954C174.984 92.6783 174.135 83.9255 177.062 84.8679Z" fill="black"/>
<path d="M176.873 84.5854C176.873 84.5854 178.76 84.3969 179.233 89.2905C179.706 94.1841 180.46 95.3102 180.46 95.3102C180.46 95.3102 180.945 97.85 179.801 99.3556C178.656 100.861 176.507 104.061 176.507 104.061C176.507 104.061 174.147 104.718 173.674 102.369L176.602 96.9124C176.602 96.9124 177.075 95.0299 175.939 93.7128C174.804 92.3958 173.946 83.6453 176.873 84.5854Z" fill="#FF748E"/>
<path opacity="0.1" d="M175.314 88.1133C175.314 88.1133 175.127 91.0301 175.976 92.6299C176.825 94.2297 176.825 96.2983 175.976 97.4268" fill="black"/>
<path opacity="0.1" d="M174.843 84.5368C174.843 84.5368 175.598 83.7853 177.771 83.691C179.944 83.5968 180.885 82.9395 180.885 82.9395" fill="black"/>
<path opacity="0.1" d="M180.094 71.8474C180.669 71.9175 181.323 72.1133 181.53 72.6497C181.586 72.8539 181.631 73.0613 181.663 73.2708C181.876 74.0924 182.805 74.4791 183.378 75.1026C183.882 75.6584 184.105 76.4075 184.27 77.1398C184.74 79.2367 184.853 81.3975 184.602 83.5316C184.418 85.0903 184.04 86.6273 183.936 88.1932C183.831 89.7592 184.023 91.4097 184.881 92.7267C185.252 93.2922 185.74 93.79 186.002 94.4183C185.461 94.8557 184.714 94.9186 184.016 94.9427C183.207 94.9701 182.395 94.9701 181.578 94.9427C181.151 94.9597 180.726 94.8709 180.341 94.6841C180.069 94.5115 179.845 94.2728 179.691 93.9906C179.226 93.2052 179.109 92.2603 179.128 91.3493C179.148 90.4382 179.293 89.532 179.31 88.6185C179.359 88.1202 179.247 87.6194 178.993 87.1879C178.758 86.9165 178.493 86.6732 178.202 86.4629C177.191 85.5688 176.844 84.1382 176.81 82.7921C176.776 81.4461 176.999 80.1001 176.885 78.7589C176.841 78.2345 176.643 77.6037 176.126 77.5022C175.963 77.4956 175.8 77.4746 175.641 77.4394C175.226 77.2799 175.267 76.6975 175.156 76.2698C175.022 75.7865 174.61 75.4167 174.494 74.9334C174.222 73.7952 175.677 72.4347 176.63 72.0335C177.584 71.6324 179.073 71.7218 180.094 71.8474Z" fill="black"/>
<path d="M180.189 71.659C180.764 71.7291 181.418 71.9249 181.625 72.4638C181.682 72.6671 181.726 72.8737 181.758 73.0824C181.971 73.904 182.9 74.2907 183.473 74.9142C183.977 75.47 184.2 76.2191 184.365 76.9514C184.835 79.0507 184.947 81.2141 184.695 83.3505C184.513 84.9092 184.135 86.4461 184.03 88.0145C183.926 89.5828 184.118 91.2285 184.976 92.5456C185.347 93.1134 185.835 93.6088 186.097 94.2372C185.556 94.677 184.809 94.7374 184.111 94.7616C183.302 94.7873 182.49 94.7873 181.673 94.7616C181.246 94.7794 180.821 94.6914 180.436 94.5054C180.164 94.3318 179.94 94.0924 179.786 93.8094C179.32 93.024 179.204 92.0792 179.223 91.1681C179.243 90.2571 179.388 89.3508 179.405 88.4398C179.405 87.942 179.376 87.4152 179.088 87.0092C178.854 86.7372 178.588 86.4938 178.297 86.2842C177.286 85.3901 176.939 83.9594 176.905 82.6134C176.871 81.2674 177.094 79.9213 176.98 78.5801C176.936 78.0557 176.737 77.425 176.221 77.3235C176.058 77.3169 175.895 77.2959 175.736 77.2607C175.321 77.1012 175.362 76.5188 175.251 76.0911C175.117 75.6077 174.705 75.2404 174.589 74.7547C174.317 73.6165 175.772 72.2559 176.725 71.8548C177.678 71.4536 179.175 71.5334 180.189 71.659Z" fill="#464353"/>
<path d="M31.0541 138.415C31.0541 138.415 33.654 138.335 34.435 137.779C35.216 137.223 38.432 136.559 38.626 137.45C38.82 138.342 42.5308 141.882 39.5961 141.907C36.6615 141.931 32.7809 141.45 31.9975 140.976C31.2141 140.503 31.0541 138.415 31.0541 138.415Z" fill="#A8A8A8"/>
<path opacity="0.2" d="M39.6495 141.59C36.7173 141.614 32.8343 141.136 32.0533 140.662C31.4591 140.299 31.2214 139.004 31.1414 138.405H31.0541C31.0541 138.405 31.219 140.493 32 140.966C32.7809 141.44 36.6639 141.919 39.5986 141.897C40.445 141.897 40.7361 141.59 40.7215 141.145C40.6027 141.423 40.2801 141.59 39.6495 141.59Z" fill="black"/>
<path d="M196.193 104.425C196.193 104.425 197.976 104.37 198.514 103.988C199.053 103.606 201.258 103.152 201.391 103.763C201.524 104.375 204.073 106.806 202.058 106.823C200.042 106.84 197.379 106.508 196.843 106.185C196.307 105.861 196.193 104.425 196.193 104.425Z" fill="#A8A8A8"/>
<path opacity="0.2" d="M202.094 106.61C200.081 106.624 197.416 106.296 196.88 105.972C196.47 105.73 196.307 104.834 196.254 104.423H196.193C196.193 104.423 196.307 105.856 196.843 106.182C197.379 106.508 200.045 106.835 202.058 106.82C202.64 106.82 202.841 106.61 202.829 106.303C202.749 106.491 202.528 106.605 202.094 106.61Z" fill="black"/>
<path opacity="0.1" d="M7.58867 10.4541C10.486 10.4541 12.8347 8.1139 12.8347 5.22707C12.8347 2.34024 10.486 0 7.58867 0C4.69137 0 2.34265 2.34024 2.34265 5.22707C2.34265 8.1139 4.69137 10.4541 7.58867 10.4541Z" fill="#241C7D"/>
<path opacity="0.1" d="M233.146 25.437C236.043 25.437 238.392 23.0968 238.392 20.21C238.392 17.3231 236.043 14.9829 233.146 14.9829C230.248 14.9829 227.9 17.3231 227.9 20.21C227.9 23.0968 230.248 25.437 233.146 25.437Z" fill="#241C7D"/>
<path opacity="0.1" d="M3.88055 29.5258C6.02372 29.5258 7.76111 27.7947 7.76111 25.6593C7.76111 23.5238 6.02372 21.7927 3.88055 21.7927C1.73738 21.7927 0 23.5238 0 25.6593C0 27.7947 1.73738 29.5258 3.88055 29.5258Z" fill="#241C7D"/>
<path opacity="0.1" d="M43.1713 7.77652C45.3144 7.77652 47.0518 6.04542 47.0518 3.90999C47.0518 1.77456 45.3144 0.043457 43.1713 0.043457C41.0281 0.043457 39.2907 1.77456 39.2907 3.90999C39.2907 6.04542 41.0281 7.77652 43.1713 7.77652Z" fill="#241C7D"/>
<path opacity="0.1" d="M202.274 8.25992C204.417 8.25992 206.154 6.52881 206.154 4.39339C206.154 2.25796 204.417 0.526855 202.274 0.526855C200.131 0.526855 198.393 2.25796 198.393 4.39339C198.393 6.52881 200.131 8.25992 202.274 8.25992Z" fill="#241C7D"/>
<path d="M215.763 156.208C215.763 156.208 216.734 157.474 215.315 159.386C213.896 161.297 212.724 162.909 213.197 164.101C213.197 164.101 215.339 160.553 217.078 160.502C218.817 160.452 217.68 158.344 215.763 156.208Z" fill="#FC6681"/>
<path opacity="0.1" d="M215.763 156.208C215.848 156.331 215.914 156.465 215.96 156.607C217.658 158.598 218.569 160.456 216.93 160.502C215.407 160.546 213.581 163.26 213.142 163.946C213.156 163.999 213.174 164.05 213.195 164.101C213.195 164.101 215.336 160.553 217.075 160.502C218.814 160.452 217.679 158.344 215.763 156.208Z" fill="black"/>
<path d="M217.568 157.822C217.568 158.267 217.517 158.629 217.456 158.629C217.395 158.629 217.344 158.267 217.344 157.822C217.344 157.377 217.408 157.58 217.468 157.58C217.529 157.58 217.568 157.375 217.568 157.822Z" fill="#FFD037"/>
<path d="M218.189 158.354C217.796 158.566 217.461 158.695 217.422 158.641C217.384 158.588 217.689 158.371 218.08 158.158C218.47 157.945 218.322 158.1 218.349 158.158C218.376 158.216 218.582 158.141 218.189 158.354Z" fill="#FFD037"/>
<path d="M210.631 156.208C210.631 156.208 209.661 157.474 211.08 159.386C212.499 161.297 213.67 162.909 213.197 164.101C213.197 164.101 211.053 160.553 209.317 160.502C207.58 160.452 208.713 158.344 210.631 156.208Z" fill="#FC6681"/>
<path opacity="0.1" d="M210.632 156.208C210.547 156.331 210.48 156.465 210.433 156.607C208.735 158.598 207.825 160.456 209.463 160.502C210.986 160.546 212.814 163.26 213.251 163.946C213.236 163.997 213.219 164.05 213.2 164.101C213.2 164.101 211.056 160.553 209.319 160.502C207.583 160.452 208.713 158.344 210.632 156.208Z" fill="black"/>
<path d="M208.825 157.822C208.825 158.267 208.876 158.629 208.939 158.629C209.002 158.629 209.05 158.267 209.05 157.822C209.05 157.377 208.987 157.58 208.924 157.58C208.861 157.58 208.825 157.375 208.825 157.822Z" fill="#FFD037"/>
<path d="M208.206 158.354C208.599 158.566 208.934 158.695 208.97 158.641C209.007 158.588 208.706 158.371 208.313 158.158C207.92 157.945 208.071 158.1 208.046 158.158C208.022 158.216 207.813 158.141 208.206 158.354Z" fill="#FFD037"/>
<path d="M209.135 163.936C209.135 163.936 211.852 163.852 212.669 163.272C213.486 162.692 216.848 161.998 217.052 162.929C217.255 163.859 221.131 167.561 218.065 167.585C215 167.609 210.94 167.102 210.125 166.619C209.31 166.135 209.135 163.936 209.135 163.936Z" fill="#A8A8A8"/>
<path opacity="0.2" d="M218.121 167.262C215.053 167.286 210.996 166.778 210.178 166.295C209.557 165.918 209.308 164.562 209.225 163.936H209.135C209.135 163.936 209.308 166.111 210.125 166.614C210.942 167.117 215 167.61 218.065 167.581C218.951 167.581 219.256 167.259 219.239 166.795C219.118 167.08 218.778 167.257 218.121 167.262Z" fill="black"/>
<path opacity="0.7" d="M76.75 30.4419C75.7427 30.4419 74.758 30.7395 73.9204 31.2972C73.0828 31.8548 72.43 32.6474 72.0445 33.5747C71.659 34.502 71.5581 35.5224 71.7547 36.5068C71.9512 37.4912 72.4363 38.3954 73.1486 39.1052C73.8609 39.8149 74.7684 40.2982 75.7564 40.494C76.7444 40.6899 77.7684 40.5894 78.6991 40.2053C79.6298 39.8212 80.4252 39.1707 80.9849 38.3361C81.5445 37.5016 81.8432 36.5204 81.8432 35.5167C81.8432 34.1708 81.3066 32.88 80.3515 31.9283C79.3963 30.9766 78.1008 30.4419 76.75 30.4419ZM76.75 31.4254C77.5655 31.4254 78.3626 31.6664 79.0407 32.1178C79.7187 32.5692 80.2472 33.2108 80.5593 33.9615C80.8713 34.7122 80.953 35.5382 80.7939 36.3351C80.6348 37.132 80.2421 37.864 79.6655 38.4386C79.0889 39.0131 78.3542 39.4044 77.5544 39.5629C76.7546 39.7214 75.9256 39.6401 75.1722 39.3291C74.4188 39.0182 73.7749 38.4916 73.3218 37.816C72.8688 37.1404 72.6269 36.3462 72.6269 35.5336C72.6269 34.4441 73.0613 33.3991 73.8346 32.6287C74.6078 31.8583 75.6565 31.4254 76.75 31.4254ZM79.6337 34.0958L79.1705 33.6294C79.1479 33.606 79.1208 33.5874 79.0908 33.5747C79.0608 33.562 79.0285 33.5554 78.9959 33.5554C78.9633 33.5554 78.931 33.562 78.901 33.5747C78.871 33.5874 78.8439 33.606 78.8213 33.6294L75.9109 36.5027L74.6836 35.2606C74.661 35.2372 74.6339 35.2186 74.6039 35.2059C74.5739 35.1932 74.5416 35.1866 74.509 35.1866C74.4764 35.1866 74.4441 35.1932 74.4141 35.2059C74.3841 35.2186 74.357 35.2372 74.3344 35.2606L73.8687 35.7221C73.8452 35.7447 73.8266 35.7717 73.8138 35.8016C73.8011 35.8315 73.7945 35.8636 73.7945 35.8961C73.7945 35.9286 73.8011 35.9608 73.8138 35.9907C73.8266 36.0206 73.8452 36.0476 73.8687 36.0701L75.7362 37.9454C75.7589 37.9688 75.786 37.9874 75.816 38.0001C75.846 38.0128 75.8783 38.0193 75.9109 38.0193C75.9435 38.0193 75.9757 38.0128 76.0057 38.0001C76.0357 37.9874 76.0629 37.9688 76.0855 37.9454L79.6337 34.4365C79.6572 34.414 79.6759 34.3869 79.6886 34.357C79.7014 34.3272 79.708 34.295 79.708 34.2625C79.708 34.23 79.7014 34.1979 79.6886 34.168C79.6759 34.1381 79.6572 34.1111 79.6337 34.0885V34.0958Z" fill="#3ACC6C"/>
<path opacity="0.7" d="M20.3657 56.135C19.385 56.362 18.4939 56.8735 17.8048 57.6048C17.1158 58.3361 16.6597 59.2545 16.4942 60.244C16.3287 61.2335 16.4612 62.2496 16.875 63.1641C17.2887 64.0785 17.9652 64.8503 18.819 65.3819C19.6728 65.9135 20.6655 66.181 21.6718 66.1508C22.6781 66.1205 23.6528 65.7938 24.4728 65.2118C25.2928 64.6299 25.9214 63.8189 26.279 62.8812C26.6367 61.9435 26.7075 60.9213 26.4824 59.9436C26.3326 59.2929 26.0554 58.678 25.6667 58.1342C25.278 57.5904 24.7854 57.1284 24.2172 56.7746C23.649 56.4208 23.0163 56.1822 22.3554 56.0725C21.6945 55.9627 21.0183 55.984 20.3657 56.135ZM20.5888 57.1017C21.3837 56.9168 22.2158 56.9713 22.9797 57.2581C23.7436 57.5449 24.4048 58.0512 24.8796 58.7128C25.3544 59.3744 25.6215 60.1615 25.6469 60.9745C25.6723 61.7875 25.4549 62.5896 25.0223 63.2794C24.5898 63.9692 23.9614 64.5155 23.217 64.8491C22.4725 65.1827 21.6454 65.2886 20.8404 65.1534C20.0355 65.0182 19.2889 64.648 18.6954 64.0896C18.1018 63.5313 17.6879 62.8099 17.5062 62.017C17.2635 60.9581 17.4515 59.8465 18.0292 58.9253C18.6069 58.0042 19.5272 57.3485 20.5888 57.1017ZM24.0012 59.0591L23.4434 58.7014C23.4162 58.6838 23.3857 58.6718 23.3537 58.6661C23.3217 58.6605 23.2889 58.6613 23.2572 58.6685C23.2255 58.6757 23.1956 58.6892 23.1693 58.7081C23.143 58.7271 23.1207 58.7511 23.1039 58.7788L20.9211 62.2297L19.444 61.2993C19.4168 61.2816 19.3863 61.2696 19.3543 61.264C19.3223 61.2583 19.2895 61.2591 19.2578 61.2663C19.2261 61.2735 19.1963 61.287 19.1699 61.306C19.1436 61.3249 19.1213 61.3489 19.1045 61.3766L18.7528 61.9324C18.7351 61.9596 18.723 61.99 18.7174 62.0218C18.7117 62.0537 18.7125 62.0864 18.7197 62.118C18.727 62.1495 18.7405 62.1793 18.7595 62.2055C18.7785 62.2318 18.8026 62.254 18.8304 62.2707L21.0714 63.6796C21.0988 63.6976 21.1295 63.71 21.1617 63.7158C21.1939 63.7217 21.227 63.721 21.259 63.7138C21.291 63.7066 21.3211 63.693 21.3477 63.6738C21.3742 63.6546 21.3966 63.6303 21.4134 63.6023L24.0813 59.3902C24.0991 59.3632 24.1113 59.3329 24.1171 59.3011C24.123 59.2694 24.1224 59.2367 24.1154 59.2052C24.1084 59.1737 24.0951 59.1438 24.0763 59.1175C24.0576 59.0912 24.0337 59.0688 24.0061 59.0519L24.0012 59.0591Z" fill="#3ACC6C"/>
<path opacity="0.7" d="M150.982 31.1763C149.975 31.1763 148.99 31.4739 148.153 32.0315C147.315 32.5892 146.662 33.3817 146.277 34.309C145.891 35.2363 145.79 36.2567 145.987 37.2411C146.183 38.2256 146.669 39.1298 147.381 39.8395C148.093 40.5493 149.001 41.0326 149.989 41.2284C150.977 41.4242 152.001 41.3237 152.931 40.9396C153.862 40.5555 154.658 39.9051 155.217 39.0705C155.777 38.236 156.076 37.2548 156.076 36.2511C156.076 34.9052 155.539 33.6144 154.584 32.6627C153.629 31.7109 152.333 31.1763 150.982 31.1763ZM150.982 32.1598C151.798 32.1598 152.595 32.4008 153.273 32.8522C153.951 33.3036 154.479 33.9452 154.792 34.6959C155.104 35.4465 155.185 36.2726 155.026 37.0695C154.867 37.8664 154.474 38.5984 153.898 39.1729C153.321 39.7475 152.587 40.1388 151.787 40.2973C150.987 40.4558 150.158 40.3744 149.404 40.0635C148.651 39.7525 148.007 39.226 147.554 38.5504C147.101 37.8748 146.859 37.0805 146.859 36.268C146.859 35.1784 147.294 34.1335 148.067 33.3631C148.84 32.5926 149.889 32.1598 150.982 32.1598ZM153.866 34.8301L153.403 34.3637C153.38 34.3404 153.353 34.3218 153.323 34.309C153.293 34.2963 153.261 34.2898 153.228 34.2898C153.196 34.2898 153.163 34.2963 153.133 34.309C153.103 34.3218 153.076 34.3404 153.054 34.3637L150.143 37.2371L148.914 36.0022C148.891 35.9788 148.864 35.9602 148.834 35.9475C148.804 35.9348 148.771 35.9282 148.739 35.9282C148.706 35.9282 148.674 35.9348 148.644 35.9475C148.614 35.9602 148.587 35.9788 148.564 36.0022L148.101 36.4686C148.078 36.4911 148.059 36.5182 148.046 36.5481C148.033 36.5779 148.027 36.6101 148.027 36.6426C148.027 36.6751 148.033 36.7072 148.046 36.7371C148.059 36.767 148.078 36.794 148.101 36.8166L149.969 38.6918C149.991 38.7152 150.018 38.7338 150.048 38.7465C150.078 38.7592 150.111 38.7658 150.143 38.7658C150.176 38.7658 150.208 38.7592 150.238 38.7465C150.268 38.7338 150.295 38.7152 150.318 38.6918L153.866 35.183C153.89 35.1604 153.908 35.1334 153.921 35.1035C153.934 35.0736 153.94 35.0415 153.94 35.009C153.94 34.9765 153.934 34.9443 153.921 34.9144C153.908 34.8845 153.89 34.8575 153.866 34.835V34.8301Z" fill="#3ACC6C"/>
<path opacity="0.7" d="M209.416 56.2388C208.412 56.1612 207.408 56.3819 206.529 56.873C205.651 57.3641 204.939 58.1036 204.482 58.9979C204.026 59.8923 203.846 60.9015 203.965 61.8979C204.084 62.8943 204.496 63.8332 205.151 64.5959C205.805 65.3586 206.672 65.911 207.641 66.1831C208.61 66.4552 209.639 66.4349 210.597 66.1248C211.554 65.8146 212.398 65.2286 213.022 64.4406C213.645 63.6527 214.02 62.6982 214.1 61.6979C214.152 61.033 214.073 60.3642 213.866 59.7299C213.659 59.0955 213.329 58.508 212.894 58.001C212.459 57.494 211.928 57.0774 211.331 56.775C210.734 56.4727 210.084 56.2905 209.416 56.2388ZM209.339 57.2176C210.153 57.2785 210.93 57.5788 211.573 58.0805C212.215 58.5821 212.694 59.2625 212.948 60.0354C213.202 60.8083 213.22 61.639 213 62.4222C212.78 63.2054 212.331 63.9059 211.711 64.4348C211.091 64.9638 210.328 65.2975 209.517 65.3936C208.706 65.4897 207.886 65.344 207.158 64.9748C206.431 64.6056 205.83 64.0296 205.431 63.3197C205.033 62.6099 204.855 61.7982 204.92 60.9874C204.961 60.4507 205.108 59.9273 205.353 59.4473C205.597 58.9672 205.935 58.5399 206.345 58.1898C206.755 57.8397 207.231 57.5736 207.745 57.4068C208.258 57.2399 208.8 57.1756 209.339 57.2176ZM212.007 60.103L211.58 59.6027C211.559 59.5777 211.534 59.5571 211.505 59.5421C211.476 59.527 211.445 59.5179 211.412 59.5152C211.38 59.5125 211.348 59.5162 211.317 59.5263C211.286 59.5364 211.257 59.5525 211.233 59.5737L208.111 62.2151L206.981 60.8884C206.961 60.863 206.935 60.842 206.906 60.8268C206.877 60.8115 206.846 60.8022 206.813 60.7995C206.78 60.7968 206.747 60.8007 206.716 60.811C206.685 60.8213 206.657 60.8377 206.632 60.8594L206.13 61.2847C206.105 61.3054 206.085 61.3308 206.07 61.3595C206.055 61.3882 206.046 61.4196 206.043 61.4518C206.041 61.4841 206.045 61.5165 206.055 61.5471C206.065 61.5777 206.082 61.606 206.103 61.6302L207.818 63.6433C207.839 63.6683 207.864 63.6889 207.893 63.7039C207.921 63.719 207.953 63.7281 207.985 63.7308C208.018 63.7335 208.05 63.7298 208.081 63.7197C208.112 63.7096 208.14 63.6935 208.165 63.6723L211.977 60.4485C212.003 60.428 212.023 60.4027 212.038 60.3741C212.053 60.3455 212.063 60.3141 212.065 60.2819C212.068 60.2497 212.064 60.2172 212.054 60.1865C212.044 60.1558 212.028 60.1274 212.007 60.103Z" fill="#3ACC6C"/>
</g>
<defs>
<linearGradient id="paint0_linear" x1="178.301" y1="139.011" x2="178.301" y2="70.7092" gradientUnits="userSpaceOnUse">
<stop stop-color="#808080" stop-opacity="0.25"/>
<stop offset="0.54" stop-color="#808080" stop-opacity="0.12"/>
<stop offset="1" stop-color="#808080" stop-opacity="0.1"/>
</linearGradient>
<clipPath id="clip0">
<rect width="256" height="187" fill="white"/>
</clipPath>
</defs>
</svg>
