<svg width="256" height="195" viewBox="0 0 256 195" fill="none" xmlns="http://www.w3.org/2000/svg">
<g clip-path="url(#clip0)">
<path opacity="0.1" d="M60.8137 162.231C58.6583 162.013 56.4065 161.779 54.3652 162.35C52.3239 162.921 50.6325 164.587 51.2385 166.179C52.5927 169.729 60.5399 167.257 64.2041 169.684C65.5126 170.551 66.0223 171.915 67.0442 172.98C68.6976 174.71 71.5402 175.516 74.284 175.96C90.7667 178.625 109.557 171.765 124.004 178.371C128.682 180.511 132.372 183.917 137.502 185.345C144.298 187.236 151.74 185.215 158.772 183.92C167.542 182.317 176.481 181.848 185.37 182.525C191.945 183.032 200.691 183.202 202.796 178.427C204.15 175.356 201.285 171.938 197.481 170.485C193.677 169.032 189.225 169.078 184.977 169.217C176.779 169.511 168.578 170.105 160.38 169.815C144.526 169.252 129.549 162.969 114.111 162.761C96.1325 162.543 78.8763 164.052 60.8137 162.231Z" fill="#241C7D"/>
<path opacity="0.1" d="M44.1459 82.7459C41.6101 85.3096 41.4554 89.2401 41.4554 89.2401C41.4554 89.2401 45.3834 89.017 47.909 86.4507C50.4347 83.8845 50.6021 79.9565 50.6021 79.9565C50.6021 79.9565 46.6716 80.1873 44.1459 82.7459Z" fill="#241C7D"/>
<path opacity="0.1" d="M54.3527 19.4117C55.2478 22.8984 58.5317 25.0665 58.5317 25.0665C58.5317 25.0665 60.3651 21.5849 59.47 18.0981C58.5748 14.6114 55.2909 12.4458 55.2909 12.4458C55.2909 12.4458 53.4474 15.9275 54.3527 19.4117Z" fill="#241C7D"/>
<path opacity="0.1" d="M202.657 29.0021C200.121 31.5658 199.964 35.4963 199.964 35.4963C199.964 35.4963 203.894 35.2732 206.42 32.7069C208.945 30.1407 209.11 26.2102 209.11 26.2102C209.11 26.2102 205.182 26.4511 202.657 29.0021Z" fill="#241C7D"/>
<path opacity="0.1" d="M125.368 64.9294C125.074 68.515 127.465 71.6391 127.465 71.6391C127.465 71.6391 130.338 68.9486 130.632 65.3604C130.926 61.7723 128.535 58.6558 128.535 58.6558C128.535 58.6558 125.662 61.3412 125.368 64.9294Z" fill="#241C7D"/>
<path opacity="0.1" d="M208.558 115.217C208.263 118.803 210.655 121.927 210.655 121.927C210.655 121.927 213.528 119.236 213.822 115.651C214.116 112.065 211.725 108.941 211.725 108.941C211.725 108.941 208.852 111.631 208.558 115.217Z" fill="#241C7D"/>
<path opacity="0.1" d="M148.738 24.4402C132.326 23.9458 116.695 19.3686 101.769 14.3477C86.8437 9.32682 72.0599 3.77593 56.0412 1.11841C45.7382 -0.59073 33.9543 -0.831631 25.6546 3.94837C17.6643 8.54579 15.0828 16.4854 13.6958 23.8519C12.651 29.3927 12.0373 35.225 14.8977 40.4133C16.8858 44.0167 20.4106 47.0444 22.85 50.4931C31.3374 62.5002 25.3376 77.3042 16.1428 89.0374C11.8319 94.5376 6.82371 99.7816 3.4942 105.637C0.164679 111.492 -1.37456 118.197 1.53909 124.166C4.42484 130.085 11.3045 134.53 18.7572 137.656C33.8935 143.996 51.7227 145.824 69.1209 146.854C107.622 149.136 146.326 148.147 184.929 147.158C199.215 146.793 213.563 146.423 227.617 144.511C235.422 143.451 243.478 141.767 249.146 137.7C256.337 132.537 258.12 123.796 253.299 117.322C245.215 106.466 222.87 103.768 217.212 92.1159C214.103 85.7028 217.296 78.5595 221.817 72.6105C231.514 59.8503 247.766 48.6547 248.621 34.0662C249.209 24.0497 241.396 14.0181 229.316 9.27864C216.654 4.30845 199.094 4.9348 189.757 13.1584C180.134 21.6153 163.23 24.8739 148.738 24.4402Z" fill="#241C7D"/>
<path d="M203.141 72.1767C202.792 72.2661 202.468 72.437 202.198 72.6755C201.927 72.9139 201.717 73.2132 201.584 73.5486L201.33 73.508L200.385 73.3559C200.385 73.3559 195.374 72.9425 194.438 73.0059C193.502 73.0693 192.917 72.1463 192.917 72.1463L189.192 68.9943L188.902 68.7407C189.306 68.5886 189.557 68.5099 189.557 68.5099C189.557 68.5099 179.561 56.0845 177.405 55.8436C175.25 55.6027 171.687 52.7017 171.651 52.6738L171.613 52.476C171.535 52.0576 171.476 51.6341 171.433 51.2081L171.963 51.5327C171.963 51.3856 171.963 51.2386 171.979 51.0915C172.058 49.558 172.575 48.0794 173.47 46.8313C174.512 45.3859 176.054 44.2499 176.67 42.5838C176.915 41.8674 177.026 41.1117 176.997 40.3549C177.013 38.9915 176.653 37.6501 175.957 36.4776C175.603 35.8915 175.128 35.3872 174.564 34.9982C174 34.6092 173.36 34.3442 172.686 34.2207C172.331 34.1649 171.968 34.1573 171.618 34.0762C169.537 33.5868 168.771 30.7949 166.747 30.1102C165.804 29.7907 164.754 30.0011 163.844 30.3967C162.933 30.7923 162.109 31.3603 161.219 31.799C160.329 32.2377 159.32 32.5598 158.511 33.1811C158.427 33.2444 158.338 33.3205 158.257 33.3991L158.097 33.5538C157.764 33.8927 157.473 34.2717 157.233 34.6823L157.195 34.7456C157.169 34.7888 157.147 34.8344 157.124 34.88C157.101 34.9257 157.086 34.951 157.07 34.9866C157.055 35.0221 157.03 35.0677 157.012 35.1083L156.959 35.23L156.913 35.3466C156.898 35.3897 156.88 35.4329 156.868 35.4785C156.855 35.5241 156.842 35.552 156.832 35.5901L156.794 35.7245L156.771 35.8335C156.771 35.8792 156.754 35.9273 156.746 35.973C156.738 36.0186 156.746 36.0414 156.746 36.0744C156.746 36.1074 156.746 36.1708 156.746 36.219C156.746 36.2671 156.746 36.2823 156.746 36.3128C156.746 36.3432 156.746 36.4142 156.746 36.4675C156.746 36.5207 156.746 36.5182 156.746 36.5435C156.756 36.6181 156.771 36.6918 156.792 36.7642C156.928 37.2307 157.4 37.7075 157.76 38.1233C157.72 38.1614 157.679 38.1969 157.639 38.2375C156.783 39.0623 156.102 40.0514 155.637 41.1455C155.172 42.2395 154.932 43.4161 154.933 44.6049C154.933 45.1331 154.982 45.6602 155.077 46.1796C154.616 45.8315 154.121 45.5315 153.599 45.2845C151.882 44.4611 150.003 44.0282 148.099 44.0166C144.992 43.9811 140.628 42.8146 140.628 42.8146C140.74 43.0275 140.825 43.2531 140.882 43.4866C140.692 43.3775 140.486 43.2609 140.261 43.1392C138.441 42.1624 136.469 41.5021 134.428 41.1866C134.428 41.1866 133.135 41.3666 132.963 38.6508C132.903 37.8022 132.75 36.9628 132.506 36.148C131.764 33.6641 131.249 31.1178 130.969 28.5405L130.536 24.5542C130.536 24.5542 132.488 14.1574 131.314 9.72482C131.692 8.3352 131.479 7.06223 130.234 6.1468C125.322 2.53074 120.367 16.6045 120.367 16.6045L118.526 18.3922C118.054 18.0844 117.521 17.8812 116.964 17.7963C116.964 17.7963 115.973 18.8106 115.283 21.5797C114.918 23.048 112.423 25.5001 110.166 27.4755C108.563 28.8778 107.016 30.3359 105.472 31.799C104.331 32.8844 101.787 34.4363 96.239 35.3137C95.3692 35.4506 94.578 35.5799 93.8553 35.6991C94.04 35.0439 94.1339 34.3664 94.1343 33.6857C94.1256 31.9722 93.5346 30.3126 92.4581 28.9795C91.3816 27.6464 89.8838 26.719 88.2106 26.3496C88.236 26.1721 88.236 25.992 88.2106 25.8145C88.1171 25.4327 87.9237 25.0826 87.6502 24.8002C86.4812 23.3548 85.2133 21.8688 83.4737 21.1841C82.7564 20.9051 81.988 20.7815 81.2194 20.8215H80.8339C80.7553 20.8215 80.6793 20.8215 80.6006 20.8215C79.7804 20.8669 78.9794 21.0867 78.2509 21.4663C77.5224 21.8459 76.8832 22.3764 76.376 23.0226C75.7522 23.8569 75.3769 24.8458 74.8393 25.7359C73.8402 27.3842 72.3035 28.6546 70.6375 29.6588C69.6358 30.2649 68.5834 30.7873 67.6376 31.4745C64.2066 33.9672 62.6243 38.5747 63.4865 42.6929C63.8668 44.5009 64.6707 46.281 64.4552 48.1144C64.2853 49.537 63.5194 50.8151 62.7384 52.0221C61.9574 53.2292 61.1307 54.4565 60.8213 55.8537C60.512 57.251 60.8366 58.8967 62.0081 59.7437C62.4392 60.053 62.9616 60.2508 63.3293 60.6261C63.5738 60.9153 63.7785 61.236 63.9378 61.5796C64.5599 62.7034 65.4037 63.6892 66.418 64.4773C67.4323 65.2653 68.596 65.8393 69.8387 66.1643C70.2328 66.265 70.6392 66.3094 71.0457 66.2962H71.0888H71.1674C72.0981 66.3545 73.0515 66.106 73.3635 65.2819C73.4108 65.0945 73.4815 64.9139 73.5739 64.7443C73.6615 64.6178 73.7923 64.5276 73.9416 64.4907C74.2416 64.5592 74.5308 64.6684 74.8013 64.8153C76.1003 65.489 77.5214 65.8952 78.9803 66.0096C79.224 66.0291 79.4688 66.0333 79.7131 66.0223C80.2208 66.0698 80.7325 65.9968 81.2067 65.8093C81.6627 65.5778 82.0566 65.2404 82.3554 64.8254C82.4214 64.7417 82.4822 64.653 82.5456 64.5718C82.2106 66.5971 81.58 68.5621 80.6742 70.4042C80.6742 70.4042 79.1527 72.94 79.2617 75.4961C79.2032 76.4273 79.4005 77.3569 79.8323 78.1841C79.8323 78.1841 79.8754 78.0725 79.9642 77.8975C80.4003 78.6278 81.8305 80.9633 82.7688 81.7824C82.8144 84.1939 82.8043 87.2141 82.5025 87.8353C81.9953 88.8978 80.3927 96.4571 87.285 101.612L88.875 105.094L82.3301 105.558C81.6682 105.467 73.1099 104.316 73.0668 105.992C73.0237 107.734 74.36 124.698 78.7977 123.55C82.9336 122.48 81.5693 117.532 81.3639 116.868L81.511 116.827L81.3487 116.782L84.6579 113.645C84.7203 113.263 84.6292 112.872 84.4044 112.557L84.4373 112.539L92.4302 112.897L94.3092 116.979C94.3092 116.979 97.4967 121.828 94.9128 125.908C92.3288 129.988 89.656 136.368 89.2249 140.238C88.8725 143.403 86.5294 146.511 85.69 147.536C84.1914 148.043 78.4427 150.3 80.7376 153.716C83.3647 157.626 91.8951 165.068 95.3438 164.812C98.7925 164.556 97.4105 162.048 97.4105 162.048L94.5273 159.254C94.5273 159.254 94.0201 153.3 94.2255 151.558C94.3371 150.652 93.6702 150.001 92.9576 149.724C93.229 147.784 93.9162 144.107 95.392 142.076C97.4587 139.226 104.095 126.684 104.095 126.684C104.095 126.684 106.205 124.812 105.731 119.244C105.54 116.997 105.434 115.024 105.373 113.465L112.884 113.802C112.884 113.802 120.94 112.993 115.468 104.361C109.996 95.7293 98.364 87.2699 98.364 87.2699L98.26 81.9269C98.7875 82.0588 99.0968 82.1247 99.0968 82.1247C99.0968 82.1247 99.0512 81.932 98.9751 81.5871L99.0968 81.615C99.0968 81.615 97.4156 74.3398 96.8983 68.5556L97.3725 68.7737C102.371 74.5578 105.741 69.6688 105.741 69.6688C105.741 69.6688 116.297 54.8293 115.263 55.5089C115.156 55.5619 115.039 55.5931 114.92 55.6005C114.8 55.6079 114.681 55.5914 114.568 55.552L115.329 53.1277C115.329 53.1277 118.445 48.3655 113.921 45.6877C110.229 43.5018 110.325 50.3536 110.485 52.9426L110.303 52.7879C110.303 52.7879 106.77 58.1131 104.873 61.08C102.977 64.0469 101.384 62.0943 101.384 62.0943L98.9878 59.3937C99.3814 58.3118 99.5747 57.1672 99.5583 56.016C99.6107 55.2128 99.4934 54.4076 99.2143 53.6527C98.9351 52.8978 98.5003 52.21 97.938 51.6341C96.1097 49.7703 95.5746 47.9648 95.5188 46.5752C95.5368 45.8552 95.6998 45.1463 95.9981 44.4908L108.451 37.8977C108.451 37.8977 111.079 37.9382 114.611 32.4964C116.9 29.016 119.42 25.6926 122.152 22.5484C122.152 22.5484 122.079 22.4419 121.952 22.2669C122.079 22.1173 122.152 22.0362 122.152 22.0362C122.152 22.0362 122.008 21.8257 121.762 21.5011L123.681 19.2874C123.621 20.2879 123.613 21.2909 123.659 22.2923L124.653 25.6522L125.211 44.3589C125.211 44.3589 124.607 46.134 128.487 47.9319C131.768 49.4533 136.967 51.9892 138.483 52.7372C138.427 52.8741 138.394 52.9477 138.394 52.9477L138.846 52.9173L138.912 52.9477C146.491 52.2681 146.232 59.8349 146.232 59.8349C146.232 59.8349 146.74 75.2273 144.424 80.5855C142.109 85.9436 142.441 92.5748 142.441 92.5748C142.441 92.5748 142.672 91.4438 143.963 92.9222C143.938 93.0515 143.91 93.191 143.879 93.3355C143.139 97.0454 141.597 104.937 141.31 108.137C140.995 111.053 140.432 113.938 139.629 116.759L138.868 130.916L143.714 131.152L143.661 131.659C143.635 131.916 143.546 132.163 143.403 132.378C143.26 132.593 143.066 132.77 142.84 132.894C141.181 133.794 137.261 136.951 137.575 146.694L137.408 148.261C137.139 150.915 136.335 153.487 135.042 155.82C134.93 156.018 134.831 156.208 134.748 156.391C134.76 156.288 134.807 156.193 134.88 156.12C134.88 156.12 132.362 156.642 132.879 163.446C133.396 170.249 134.172 171.438 135.207 171.522C136.241 171.606 141.293 172.841 141.021 170.333C140.75 167.825 140.514 162.254 140.849 161.404C141.184 160.555 142.558 158.262 141.255 157.71C141.633 156.149 141.816 154.548 141.8 152.942C141.8 152.942 144.336 148.946 146.149 147.457C147.962 145.969 148.938 143.441 149.595 140.187C149.641 139.974 154.938 136.444 154.159 133.513C154.022 133.006 153.924 132.557 153.847 132.151C153.815 131.971 153.787 131.801 153.761 131.644H153.855L154.933 125.18V131.474L155.572 131.558L155.549 132.065L155.278 138.1C155.228 139.276 154.971 140.433 154.517 141.518C153.376 144.219 151.271 150.231 151.844 156.733L151.783 162.53C151.601 162.566 148.969 163.187 149.468 169.757C149.975 176.558 150.759 177.75 151.793 177.834C152.828 177.917 157.879 179.152 157.611 176.644C157.342 174.137 157.103 168.565 157.438 167.716C157.773 166.866 158.376 164.62 157.073 164.067C157.08 163.305 157.266 162.555 157.616 161.878C158.184 160.912 160.08 156.32 161.508 152.788C162.968 149.212 163.779 145.406 163.904 141.546C163.904 141.503 163.904 141.46 163.904 141.417C163.943 140.115 164.222 138.831 164.729 137.631C165.312 136.288 165.774 134.895 166.108 133.47C166.144 133.3 166.172 133.135 166.197 132.963L167.434 133.127L171.659 114.844C171.659 114.844 172.815 104.934 172.25 100.459C172.227 100.273 172.202 100.104 172.171 99.9388L172.425 99.9616C172.425 99.9616 173.287 97.7529 173.028 88.3121C172.77 78.8713 174.753 75.8866 174.753 75.8866C175.823 72.4937 177.004 71.3577 177.694 70.9773C177.872 70.8641 178.075 70.7978 178.285 70.7846L181.483 74.4437L182.071 75.1183C182.072 75.1048 182.072 75.0912 182.071 75.0777L182.325 75.3744C182.305 75.2239 182.298 75.0721 182.304 74.9205C184.011 75.912 187.954 78.2297 190.307 79.8932C193.376 82.0613 194.218 81.8077 196.9 81.582C198.528 81.4476 200.73 80.5347 202.205 79.8399L202.34 79.7765C202.737 79.9885 203.155 80.1585 203.587 80.2837C203.587 80.2837 207.919 83.953 208.337 77.2559C208.755 70.5589 203.141 72.1767 203.141 72.1767ZM90.8047 150.168C90.3637 150.037 89.9385 149.857 89.5368 149.633L90.8047 150.168ZM84.024 77.6744L84.0392 78.6253L83.9733 78.6557C83.9936 78.321 84.0088 77.9913 84.024 77.6744ZM151.766 162.553V162.923C151.719 162.873 151.693 162.807 151.693 162.738C151.693 162.669 151.719 162.603 151.766 162.553Z" fill="url(#paint0_linear)"/>
<path d="M165.591 51.1296H158.237V58.8639H165.591V51.1296Z" fill="#FF7590"/>
<path d="M149.301 140.433C148.654 143.666 147.696 146.179 145.921 147.66C144.146 149.141 141.653 153.112 141.653 153.112C141.61 158.394 140.215 160 140.215 160L138.777 160.38H135.227C135.227 160.38 134.593 158.605 134.466 157.55C134.423 157.197 134.674 156.607 135.024 155.973C136.293 153.649 137.082 151.094 137.345 148.459L137.509 146.9C137.21 137.22 141.059 134.078 142.675 133.183C142.898 133.059 143.088 132.882 143.228 132.668C143.368 132.455 143.454 132.21 143.479 131.956L143.765 129.189L153.315 129.659C153.315 129.659 153.112 130.5 153.475 132.448C153.548 132.851 153.647 133.3 153.779 133.8C154.54 136.713 149.341 140.22 149.301 140.433Z" fill="#8E5362"/>
<path d="M165.494 133.749C165.167 135.165 164.715 136.549 164.143 137.885C163.645 139.079 163.37 140.354 163.331 141.648C163.331 141.691 163.331 141.734 163.331 141.777C163.208 145.61 162.412 149.392 160.981 152.95C159.578 156.459 157.72 161.026 157.162 161.987C156.234 163.593 156.781 166.298 156.781 166.298L151.405 165.918L151.499 156.873C150.939 150.414 153.003 144.447 154.121 141.752C154.573 140.674 154.831 139.524 154.882 138.356L155.136 132.357L155.214 130.581C155.214 130.581 164.718 129.23 165.52 131.385C165.74 131.956 165.687 132.805 165.494 133.749Z" fill="#8E5362"/>
<path opacity="0.1" d="M153.475 132.448L143.468 131.956L143.755 129.189L153.315 129.659C153.315 129.659 153.105 130.498 153.475 132.448Z" fill="black"/>
<path opacity="0.1" d="M165.494 133.749L155.133 132.357L155.212 130.581C155.212 130.581 164.716 129.23 165.517 131.385C165.74 131.956 165.687 132.805 165.494 133.749Z" fill="black"/>
<path d="M170.939 115.242L166.798 133.416L154.542 131.768V125.512L153.483 131.941L138.775 131.22L139.536 117.147C140.324 114.338 140.875 111.469 141.184 108.568C141.47 105.388 142.977 97.5449 143.704 93.8603C143.958 92.6457 144.1 91.8799 144.1 91.8799C144.1 91.8799 169.291 97.1189 170.939 99.0207C171.221 99.3453 171.406 100.035 171.52 100.95C172.073 105.393 170.939 115.242 170.939 115.242Z" fill="#BDD2E8"/>
<path opacity="0.1" d="M141.523 116.427C141.523 116.427 151.438 111.228 153.855 112.326L141.523 116.427Z" fill="black"/>
<path opacity="0.1" d="M146.932 99.4368C146.932 99.4368 155.174 105.693 155.427 107.381L146.932 99.4368Z" fill="black"/>
<path opacity="0.1" d="M144.693 120.991C144.693 120.991 150.652 120.738 152.554 122.259L144.693 120.991Z" fill="black"/>
<path opacity="0.1" d="M155.427 114.302C155.427 114.302 158.26 123.572 157.032 126.108C155.805 128.644 154.54 125.515 154.54 125.515L155.427 114.302Z" fill="black"/>
<path d="M151.449 162.624C151.449 162.624 148.659 163.047 149.166 169.808C149.673 176.568 150.434 177.755 151.449 177.839C152.463 177.922 157.408 179.15 157.154 176.654C156.901 174.159 156.647 168.626 156.984 167.779C157.321 166.932 157.905 164.703 156.627 164.153L156.35 165.456C156.35 165.456 153.645 162.961 152.039 164.779C151.97 164.336 151.859 163.9 151.707 163.478C151.547 163.083 151.197 162.877 151.449 162.624Z" fill="#494457"/>
<path d="M202.497 79.6574C202.497 79.6574 201.858 80.0149 200.92 80.4612C199.472 81.151 197.314 82.0588 195.716 82.1932C193.084 82.4163 192.26 82.6699 189.25 80.5145C186.94 78.8611 183.073 76.5561 181.389 75.5722L180.656 75.1386L180.583 75.0955V75.065L181.98 71.2258L186.925 68.5962L188.152 69.6485L191.806 72.7803C191.806 72.7803 192.377 73.6982 193.297 73.6348C194.218 73.5714 199.13 73.9822 199.13 73.9822L200.058 74.1344L202.013 74.459L202.497 79.6574Z" fill="#8E5362"/>
<path opacity="0.1" d="M202.497 79.6575C202.497 79.6575 201.858 80.015 200.92 80.4613C199.928 79.9542 198.696 79.0032 199.17 77.4386C199.599 76.0313 199.715 74.9333 200.068 74.1421L202.023 74.4667L202.497 79.6575Z" fill="black"/>
<path d="M201.832 72.8107C201.832 72.8107 207.348 71.2258 206.937 77.8823C206.526 84.5388 202.276 80.8948 202.276 80.8948C202.276 80.8948 198.663 79.9439 199.423 77.4385C200.184 74.9331 199.964 73.4142 201.832 72.8107Z" fill="#8E5362"/>
<path d="M144.65 51.2563L138.904 53.6704L138.815 53.7084L138.752 53.678L138.394 53.4979C136.908 52.7575 131.801 50.2242 128.588 48.7205C124.784 46.9454 125.375 45.1703 125.375 45.1703L124.828 26.5753L123.854 23.2356C123.854 23.2356 123.167 11.9158 128.672 9.07818C134.177 6.24061 130.617 25.4747 130.617 25.4747L131.043 29.4712C131.318 32.0277 131.823 34.5543 132.552 37.0203C132.79 37.831 132.939 38.665 132.998 39.5079C133.168 42.2111 134.436 42.031 134.436 42.031C136.438 42.3455 138.372 43.0026 140.151 43.9734C140.812 44.3224 141.445 44.7225 142.043 45.1703L144.65 51.2563Z" fill="#8E5362"/>
<path d="M165.107 60.1316L160.202 59.6245C160.202 59.6245 161.648 57.4741 162.284 55.3821C162.374 55.0952 162.446 54.8031 162.5 54.5072C162.647 53.678 162.609 52.9097 162.231 52.3543C160.796 50.242 170.769 47.2827 170.769 47.2827C170.648 48.4518 170.611 49.6281 170.66 50.8024C170.689 51.6196 170.773 52.4338 170.914 53.2393C171.215 54.88 171.816 56.4243 172.963 57.2155C176.094 59.3709 165.107 60.1316 165.107 60.1316Z" fill="#8E5362"/>
<path opacity="0.1" d="M165.107 60.1316L160.202 59.6244C160.202 59.6244 161.648 57.4741 162.284 55.382C162.85 56.1859 163.045 56.1681 163.839 56.3279C163.839 56.3279 168.789 57.0607 170.919 53.2393C171.22 54.8799 171.821 56.4242 172.968 57.2154C176.094 59.3709 165.107 60.1316 165.107 60.1316Z" fill="black"/>
<path opacity="0.1" d="M181.399 75.5722C181.393 75.723 181.4 75.8739 181.419 76.0236L180.658 75.1386L180.595 75.065L181.992 71.2258L186.937 68.5962L188.164 69.6486C186.407 70.3205 181.478 72.4531 181.399 75.5722Z" fill="black"/>
<path opacity="0.1" d="M144.65 51.2563L138.904 53.6704H138.752L138.308 53.7008C138.308 53.7008 138.341 53.6273 138.394 53.4903C138.874 52.3264 141.098 46.6436 140.136 43.9658C140.797 44.3147 141.43 44.7149 142.028 45.1627L144.65 51.2563Z" fill="black"/>
<path opacity="0.1" d="M171.519 100.943C169.283 100.743 146.907 98.6734 144.82 95.3794C144.49 94.8427 144.117 94.3339 143.704 93.8579C143.958 92.6433 144.1 91.8774 144.1 91.8774C144.1 91.8774 169.29 97.1164 170.939 99.0183C171.22 99.3378 171.405 100.025 171.519 100.943Z" fill="black"/>
<path d="M163.838 56.5815C163.838 56.5815 168.842 57.322 170.956 53.4346C170.956 53.4346 174.489 56.3356 176.601 56.5841C178.714 56.8326 188.519 69.1769 188.519 69.1769C188.519 69.1769 180.658 71.7127 181.166 75.77L177.446 71.4591C177.446 71.4591 175.587 71.3729 173.982 76.5308C173.982 76.5308 172.037 79.4875 172.29 88.87C172.544 98.2525 171.699 100.451 171.699 100.451C171.699 100.451 147.016 98.3387 144.82 94.8723C142.624 91.4058 142.284 93.0972 142.284 93.0972C142.284 93.0972 141.944 86.5041 144.227 81.1789C146.509 75.8537 146.002 60.5552 146.002 60.5552C146.002 60.5552 146.255 53.0314 138.818 53.7085C138.818 53.7085 141.944 46.4383 140.509 43.6489C140.509 43.6489 144.787 44.8103 147.835 44.8458C149.706 44.8604 151.55 45.2936 153.231 46.1137C154.147 46.5626 154.991 47.1281 155.47 47.8026C156.906 49.8312 159.274 48.9031 159.274 48.9031C159.871 50.7595 160.608 52.5677 161.48 54.312C161.579 54.4971 161.678 54.6797 161.779 54.8547C161.926 55.1082 162.079 55.3618 162.231 55.5698C162.839 56.4395 163.012 56.4167 163.838 56.5815Z" fill="#FF7590"/>
<path opacity="0.1" d="M170.66 50.7949C170.39 51.1777 170.09 51.5381 169.762 51.8726C168.938 52.7188 167.952 53.3913 166.863 53.8504C165.774 54.3094 164.604 54.5457 163.423 54.5453C163.117 54.5455 162.811 54.5302 162.507 54.4997C162.654 53.6705 162.616 52.9021 162.238 52.3468C160.803 50.2344 170.777 47.2751 170.777 47.2751C170.653 48.444 170.614 49.6203 170.66 50.7949Z" fill="black"/>
<path d="M172.29 45.4237C172.29 47.1791 171.77 48.895 170.795 50.3546C169.819 51.8141 168.433 52.9517 166.811 53.6235C165.19 54.2952 163.405 54.471 161.683 54.1285C159.962 53.7861 158.38 52.9408 157.139 51.6995C155.898 50.4583 155.053 48.8769 154.71 47.1552C154.368 45.4336 154.543 43.649 155.215 42.0273C155.887 40.4055 157.025 39.0194 158.484 38.0442C159.944 37.0689 161.66 36.5484 163.415 36.5484C164.582 36.544 165.738 36.7706 166.817 37.2151C167.895 37.6596 168.875 38.3132 169.7 39.1382C170.526 39.9632 171.179 40.9434 171.624 42.0221C172.068 43.1009 172.295 44.257 172.29 45.4237Z" fill="#8E5362"/>
<path opacity="0.1" d="M176.688 65.7103L176.87 71.6492C176.87 71.6492 179.52 69.514 179.604 67.4854C179.687 65.4568 176.688 65.7103 176.688 65.7103Z" fill="black"/>
<path opacity="0.1" d="M155.3 71.6492C155.3 71.6492 162.274 81.2218 166.331 82.1931C170.388 83.1643 156.822 74.753 155.3 71.6492Z" fill="black"/>
<path opacity="0.1" d="M162.697 72.6458C162.697 72.6458 166.585 77.0378 169.374 77.5855L162.697 72.6458Z" fill="black"/>
<path opacity="0.1" d="M149.004 83.7148C149.004 83.7148 156.104 90.6883 160.162 91.1118L149.004 83.7148Z" fill="black"/>
<path opacity="0.1" d="M172.29 45.424C172.292 47.7442 171.381 49.9718 169.755 51.6266L168.781 51.0206C168.404 50.8245 168.079 50.5421 167.832 50.1964C167.51 49.6588 167.604 48.9843 167.63 48.358C167.683 47.0317 167.318 45.5965 166.281 44.7673C164.599 43.4207 161.904 44.1663 160.195 42.8451C159.783 42.4956 159.421 42.0922 159.117 41.6457L157.514 39.4978C157.418 39.3711 157.301 39.2443 157.177 39.0947C158.425 37.8677 160.007 37.0369 161.726 36.7069C163.445 36.3768 165.222 36.5622 166.836 37.2397C168.449 37.9172 169.827 39.0566 170.794 40.5146C171.762 41.9726 172.277 43.6842 172.275 45.4342L172.29 45.424Z" fill="black"/>
<path d="M158.067 34.0587C158.861 33.4527 159.829 33.1331 160.722 32.6868C161.615 32.2405 162.403 31.6725 163.296 31.2922C164.189 30.9118 165.221 30.6886 166.146 31.0056C168.132 31.6877 168.882 34.4619 170.924 34.9488C171.269 35.0299 171.624 35.0375 171.971 35.0908C172.634 35.2165 173.263 35.4815 173.816 35.8684C174.369 36.2553 174.833 36.7552 175.179 37.335C175.86 38.505 176.211 39.8381 176.193 41.1919C176.221 41.9433 176.112 42.6935 175.871 43.4057C175.267 45.0616 173.754 46.1951 172.732 47.6278C171.764 48.9989 171.251 50.6386 171.263 52.3165L168.788 50.7773C168.411 50.582 168.086 50.2995 167.84 49.9532C167.518 49.4156 167.612 48.741 167.637 48.1147C167.69 46.7885 167.325 45.3532 166.291 44.524C164.607 43.1775 161.911 43.923 160.205 42.6019C159.793 42.2524 159.431 41.8489 159.127 41.4024L157.524 39.2546C157.177 38.788 156.51 38.2073 156.358 37.6393C156.021 36.417 157.174 34.7459 158.067 34.0587Z" fill="#362133"/>
<path opacity="0.1" d="M169.065 50.4906C168.688 50.2953 168.363 50.0128 168.117 49.6665C167.795 49.1289 167.888 48.4544 167.914 47.828C167.967 46.5018 167.602 45.0665 166.565 44.2373C164.883 42.8908 162.188 43.6363 160.479 42.3152C160.067 41.9657 159.705 41.5622 159.401 41.1157L157.798 38.9679C157.448 38.5013 156.784 37.9206 156.632 37.3526C156.356 36.3738 157.055 35.0983 157.803 34.2817C156.964 35.0577 156.044 36.531 156.356 37.629C156.518 38.197 157.175 38.7777 157.522 39.2443L159.125 41.3921C159.428 41.8386 159.791 42.2421 160.202 42.5916C161.904 43.9127 164.599 43.1672 166.288 44.5137C167.323 45.3429 167.688 46.7782 167.635 48.1044C167.609 48.7308 167.516 49.4053 167.838 49.9429C168.084 50.2892 168.409 50.5718 168.786 50.767L171.261 52.3063C171.261 52.1592 171.261 52.0121 171.276 51.8676L169.065 50.4906Z" fill="black"/>
<path d="M134.864 156.269C134.864 156.269 132.394 156.776 132.902 163.55C133.409 170.323 134.169 171.497 135.184 171.581C136.198 171.664 141.143 172.892 140.889 170.396C140.636 167.901 140.382 162.368 140.719 161.521C141.057 160.674 142.396 158.399 141.118 157.849L140.086 159.198C140.086 159.198 137.38 156.703 135.775 158.521C135.775 158.521 134.273 156.86 134.864 156.269Z" fill="#494457"/>
<path opacity="0.1" d="M136.426 160.469C136.962 160.722 137.461 161.031 137.994 161.285C138.518 161.56 139.103 161.697 139.695 161.686C139.946 161.681 140.19 161.597 140.39 161.445" fill="black"/>
<path opacity="0.1" d="M152.681 167.092C152.998 167.384 153.244 167.756 153.601 167.997C154.109 168.337 154.758 168.357 155.377 168.365C155.48 168.374 155.583 168.361 155.681 168.327C155.791 168.267 155.885 168.18 155.952 168.073L156.284 167.645" fill="black"/>
<path d="M111.01 54.6364C111.01 54.6364 109.869 43.8186 114.307 46.4812C118.744 49.1438 115.689 53.8757 115.689 53.8757L114.646 57.2153L111.01 54.6364Z" fill="#FFC1C7"/>
<path d="M118.11 20.0657L120.646 17.5756C120.646 17.5756 125.507 3.58551 130.325 7.17875C135.143 10.772 124.219 19.8578 124.219 19.8578L121.323 23.238L118.11 20.0657Z" fill="#FFC1C7"/>
<path d="M81.0012 75.3922L80.8744 78.2653C80.8744 78.2653 83.1997 82.3226 84.1709 82.6193C85.1422 82.9159 85.0585 74.0381 85.0585 74.0381L81.0012 75.3922Z" fill="#FF5374"/>
<path opacity="0.1" d="M81.0012 75.3922L80.8744 78.2653C80.8744 78.2653 83.1997 82.3226 84.1709 82.6193C85.1422 82.9159 85.0585 74.0381 85.0585 74.0381L81.0012 75.3922Z" fill="black"/>
<path d="M84.8889 72.2375L85.0613 82.8271H96.8503L95.9628 76.6575L84.8889 72.2375Z" fill="#FFC1C7"/>
<path d="M87.6376 98.676L88.1878 102.056L95.0776 117.357C95.0776 117.357 98.2043 122.175 95.6685 126.233C93.1327 130.29 90.5132 136.629 90.0897 140.474C89.6662 144.318 86.3291 148.081 86.3291 148.081L93.5993 151.167C93.5993 151.167 94.1064 145.124 96.1351 142.292C98.1637 139.459 104.671 126.993 104.671 126.993C104.671 126.993 106.742 125.132 106.278 119.596C105.814 114.061 105.855 110.171 105.855 110.171L105.137 101.339L87.6376 98.676Z" fill="#575988"/>
<path opacity="0.1" d="M87.6376 98.676L88.1878 102.056L95.0776 117.357C95.0776 117.357 98.2043 122.175 95.6685 126.233C93.1327 130.29 90.5132 136.629 90.0897 140.474C89.6662 144.318 86.3291 148.081 86.3291 148.081L93.5993 151.167C93.5993 151.167 94.1064 145.124 96.1351 142.292C98.1637 139.459 104.671 126.993 104.671 126.993C104.671 126.993 106.742 125.132 106.278 119.596C105.814 114.061 105.855 110.171 105.855 110.171L105.137 101.339L87.6376 98.676Z" fill="black"/>
<path d="M86.9605 147.617C86.9605 147.617 79.1832 149.983 81.7621 153.873C84.341 157.763 92.7092 165.157 96.0894 164.904C99.4697 164.65 98.1181 162.155 98.1181 162.155L95.2856 159.366C95.2856 159.366 94.7784 153.45 94.9914 151.718C95.2044 149.986 92.5824 149.182 92.2426 150.196C91.9028 151.21 86.9605 147.617 86.9605 147.617Z" fill="#C4747B"/>
<path d="M91.8621 78.3286L85.6975 79.0107C85.1467 79.0716 84.6388 79.337 84.2744 79.7545C83.91 80.172 83.7156 80.7111 83.7297 81.2651C83.7957 83.7299 83.8388 87.6502 83.4939 88.3653C82.9867 89.4228 81.4247 96.9465 88.1851 102.059L97.3572 104.975L82.6495 106.032L83.1161 114.19L85.3983 112.922L113.292 114.19C113.292 114.19 121.196 113.386 115.828 104.808C110.46 96.2289 99.0511 87.8176 99.0511 87.8176L98.9243 81.1383L98.0773 79.1959L91.8621 78.3286Z" fill="#575988"/>
<path opacity="0.1" d="M99.5126 104.846C100.512 104.409 101.591 104.184 102.682 104.184C103.773 104.184 104.852 104.409 105.852 104.846H99.5126Z" fill="black"/>
<path d="M83.3697 105.987C83.3697 105.987 74.2838 104.678 74.2407 106.41C74.1976 108.142 75.5086 125.005 79.8626 123.864C84.2166 122.723 82.3553 117.144 82.3553 117.144L85.6113 114.018C85.6113 114.018 85.9486 112.286 83.7931 112.453L83.3697 105.987Z" fill="#C4747B"/>
<path d="M98.4146 58.6939L102.005 62.7943C102.005 62.7943 103.57 64.7392 105.429 61.7799C107.287 58.8207 110.754 53.5386 110.754 53.5386C110.754 53.5386 114.601 56.9188 115.615 56.2443C116.629 55.5698 106.276 70.3205 106.276 70.3205C106.276 70.3205 102.979 75.1792 98.0748 69.433L96.6396 68.7559L98.4146 58.6939Z" fill="#FF5374"/>
<path opacity="0.1" d="M98.4146 58.6939L102.005 62.7943C102.005 62.7943 103.57 64.7392 105.429 61.7799C107.287 58.8207 110.754 53.5386 110.754 53.5386C110.754 53.5386 114.601 56.9188 115.615 56.2443C116.629 55.5698 106.276 70.3205 106.276 70.3205C106.276 70.3205 102.979 75.1792 98.0748 69.433L96.6396 68.7559L98.4146 58.6939Z" fill="black"/>
<path d="M87.4298 42.0311C91.5612 42.0311 94.9104 38.6819 94.9104 34.5505C94.9104 30.419 91.5612 27.0698 87.4298 27.0698C83.2983 27.0698 79.9491 30.419 79.9491 34.5505C79.9491 38.6819 83.2983 42.0311 87.4298 42.0311Z" fill="#FFC1C7"/>
<path opacity="0.1" d="M87.4271 38.5772C87.4271 38.5772 80.9988 41.6202 81.7596 46.9454C82.5203 52.2706 82.6471 58.9905 82.6471 58.9905C82.6471 58.9905 85.5658 63.3013 81.6962 71.5427C81.6962 71.5427 79.2238 75.7268 80.872 78.7698C80.872 78.7698 82.7004 73.9517 87.4271 77.5019C92.1539 81.052 99.7638 82.7003 99.7638 82.7003C99.7638 82.7003 95.8333 65.4568 98.2423 63.0478C98.2423 63.0478 102.426 56.835 98.6227 52.9045C94.819 48.974 96.7208 45.2971 96.7208 45.2971L108.936 38.7471C108.936 38.7471 111.512 38.7877 114.979 33.3788C117.223 29.9223 119.694 26.6184 122.376 23.4892C122.376 23.4892 119.754 19.5587 117.304 19.262C117.304 19.262 116.33 20.2763 115.656 23.0251C115.296 24.4832 112.849 26.9201 110.635 28.8854C109.063 30.2801 107.546 31.728 106.032 33.1962C104.912 34.274 102.416 35.8157 96.9744 36.688C88.018 38.1157 87.4271 38.5772 87.4271 38.5772Z" fill="black"/>
<path d="M87.4271 38.0701C87.4271 38.0701 80.9988 41.1131 81.7596 46.4383C82.5203 51.7635 82.6471 58.4834 82.6471 58.4834C82.6471 58.4834 85.5658 62.7943 81.6962 71.0356C81.6962 71.0356 79.2238 75.2197 80.872 78.2627C80.872 78.2627 82.7004 73.4447 87.4271 76.9948C92.1539 80.5449 99.7638 82.1932 99.7638 82.1932C99.7638 82.1932 95.8333 64.9497 98.2423 62.5407C98.2423 62.5407 102.426 56.328 98.6227 52.3975C94.819 48.467 96.7208 44.79 96.7208 44.79L108.936 38.24C108.936 38.24 111.512 38.2806 114.979 32.8717C117.223 29.4152 119.694 26.1114 122.376 22.9821C122.376 22.9821 119.754 19.0516 117.304 18.7549C117.304 18.7549 116.33 19.7692 115.656 22.518C115.296 23.9761 112.849 26.413 110.635 28.3783C109.063 29.773 107.546 31.2209 106.032 32.6892C104.912 33.7669 102.416 35.3086 96.9744 36.181C88.018 37.6086 87.4271 38.0701 87.4271 38.0701Z" fill="#FF5374"/>
<path opacity="0.1" d="M92.9626 69.9375C92.9626 69.9375 97.948 77.2913 98.0748 78.5592C98.0774 78.5592 97.3166 70.6551 92.9626 69.9375Z" fill="black"/>
<path opacity="0.1" d="M86.4127 45.1704C86.4127 45.1704 89.8893 49.3545 94.9127 45.8475C93.5244 46.3189 92.0545 46.502 90.5929 46.3856C89.1313 46.2691 87.7089 45.8557 86.4127 45.1704Z" fill="black"/>
<path opacity="0.1" d="M89.1083 26.7274C89.0171 26.3474 88.8283 25.9977 88.5605 25.7131C87.4143 24.2753 86.1693 22.7994 84.4627 22.1173C83.3298 21.6941 82.0913 21.6445 80.9283 21.9757C79.7652 22.307 78.7387 23.0017 77.9989 23.9583C77.3852 24.785 77.02 25.7689 76.4901 26.6539C75.5112 28.292 73.9974 29.5548 72.3694 30.5539C71.388 31.1549 70.3534 31.6748 69.4278 32.3569C66.0628 34.8344 64.5084 39.414 65.3553 43.5145C65.7281 45.3098 66.5167 47.0798 66.3037 48.9031C66.1389 50.318 65.3858 51.5859 64.6225 52.7879C63.8592 53.9899 63.0452 55.2071 62.7409 56.5916C62.4366 57.9762 62.7561 59.6168 63.9048 60.4562C64.3283 60.7656 64.838 60.9634 65.2006 61.3336C65.4406 61.6218 65.641 61.9407 65.7966 62.282C66.4006 63.3964 67.2255 64.3759 68.2209 65.1607C69.2163 65.9455 70.3612 66.5191 71.5858 66.8464C72.6762 67.133 74.1394 67.029 74.5375 65.9741C74.5832 65.7878 74.6522 65.6081 74.7429 65.4391C75.103 64.9319 75.8967 65.2159 76.4546 65.5075C77.7246 66.1714 79.116 66.5708 80.5448 66.6816C81.1115 66.7563 81.6879 66.6875 82.221 66.4813C82.6711 66.2527 83.0585 65.9176 83.3494 65.505C84.6833 63.768 85.0662 61.4984 85.2944 59.3202C85.444 57.9026 85.548 56.4598 85.2766 55.06C84.8456 52.8133 83.4788 50.7136 83.6816 48.4365C83.8972 46.0021 85.8726 44.0115 86.1743 41.5898C86.3277 40.3218 86.011 39.0417 85.2843 37.9915C85.0161 37.6672 84.7887 37.3112 84.6072 36.9315C84.5206 36.7395 84.4937 36.5259 84.5299 36.3184C84.566 36.1109 84.6636 35.919 84.8101 35.7676C84.9706 35.6544 85.1489 35.5687 85.3375 35.514C86.968 34.8876 87.8378 33.2546 87.9545 31.5835C88.0001 30.9495 87.9545 30.3663 88.1294 29.7475C88.4084 28.7915 89.2528 27.7468 89.1083 26.7274Z" fill="black"/>
<path d="M88.6011 26.7274C88.5099 26.3474 88.3211 25.9977 88.0533 25.7131C86.9071 24.2753 85.6621 22.7994 83.9555 22.1173C82.8226 21.6941 81.5841 21.6445 80.4211 21.9757C79.258 22.307 78.2315 23.0017 77.4917 23.9583C76.878 24.785 76.5129 25.7689 75.9829 26.6539C75.0041 28.292 73.4902 29.5548 71.8622 30.5539C70.8808 31.1549 69.8462 31.6748 68.9207 32.3569C65.5556 34.8344 64.0012 39.414 64.8481 43.5145C65.2209 45.3098 66.0096 47.0798 65.7965 48.9031C65.6317 50.318 64.8786 51.5859 64.1153 52.7879C63.352 53.9899 62.538 55.2071 62.2337 56.5916C61.9294 57.9762 62.2489 59.6168 63.3977 60.4562C63.8211 60.7656 64.3308 60.9634 64.6935 61.3336C64.9334 61.6218 65.1338 61.9407 65.2894 62.282C65.8934 63.3964 66.7184 64.3759 67.7137 65.1607C68.7091 65.9455 69.8541 66.5191 71.0786 66.8464C72.169 67.133 73.6322 67.029 74.0303 65.9741C74.076 65.7878 74.145 65.6081 74.2357 65.4391C74.5958 64.9319 75.3895 65.2159 75.9474 65.5075C77.2174 66.1714 78.6089 66.5708 80.0376 66.6816C80.6043 66.7563 81.1807 66.6875 81.7138 66.4813C82.1639 66.2527 82.5513 65.9176 82.8422 65.505C84.1761 63.768 84.559 61.4984 84.7872 59.3202C84.9368 57.9026 85.0408 56.4598 84.7695 55.06C84.3384 52.8133 82.9716 50.7136 83.1744 48.4365C83.39 46.0021 85.3654 44.0115 85.6671 41.5898C85.8205 40.3218 85.5039 39.0417 84.7771 37.9915C84.5089 37.6672 84.2815 37.3112 84.1 36.9315C84.0135 36.7395 83.9865 36.5259 84.0227 36.3184C84.0588 36.1109 84.1565 35.919 84.3029 35.7676C84.4634 35.6544 84.6417 35.5687 84.8303 35.514C86.4608 34.8876 87.3306 33.2546 87.4473 31.5835C87.4929 30.9495 87.4473 30.3663 87.6222 29.7475C87.9012 28.7915 88.7456 27.7468 88.6011 26.7274Z" fill="#BB7684"/>
<g opacity="0.1">
<path opacity="0.1" d="M73.4802 65.4264C73.3896 65.5957 73.3198 65.7754 73.2722 65.9614C73.0364 66.5903 72.4202 66.8794 71.733 66.9504C72.689 67.0467 73.7109 66.816 74.033 65.9614C74.0806 65.7754 74.1504 65.5957 74.2409 65.4264C74.3047 65.3332 74.3923 65.2588 74.4945 65.2108C74.1091 65.0993 73.7135 65.1043 73.4802 65.4264Z" fill="black"/>
<path opacity="0.1" d="M88.614 26.7248C88.5253 26.3438 88.3362 25.9936 88.0662 25.7105C86.92 24.2727 85.675 22.7968 83.9684 22.1147C83.2267 21.8251 82.4295 21.7055 81.6354 21.7648C82.1745 21.7987 82.705 21.9168 83.2076 22.1147C84.9142 22.7968 86.1593 24.2727 87.3055 25.7105C87.5754 25.9936 87.7646 26.3438 87.8532 26.7248C87.9978 27.7391 87.1559 28.7915 86.8769 29.7297C86.6918 30.3485 86.7451 30.9292 86.702 31.5657C86.5828 33.2342 85.7155 34.8622 84.0825 35.4962C83.8939 35.5509 83.7156 35.6366 83.555 35.7497C83.4085 35.9017 83.3111 36.0941 83.2754 36.3021C83.2396 36.5102 83.2673 36.7241 83.3547 36.9162C83.5353 37.2958 83.7618 37.6518 84.0292 37.9762C84.7568 39.0252 85.0743 40.3045 84.9218 41.572C84.6175 43.9987 82.6396 45.9868 82.4266 48.4186C82.2237 50.7009 83.5931 52.7954 84.0216 55.0396C84.2904 56.4394 84.189 57.8823 84.0394 59.2998C83.8112 61.4781 83.4308 63.7501 82.0944 65.4846C81.8045 65.8971 81.4179 66.2323 80.9685 66.4609C80.7058 66.5761 80.4254 66.6455 80.1393 66.6663C80.6781 66.7305 81.2244 66.6599 81.7293 66.4609C82.1795 66.2384 82.5685 65.9094 82.8628 65.5024C84.1991 63.7679 84.5795 61.4958 84.8077 59.3175C84.9573 57.9 85.0613 56.4571 84.79 55.0574C84.3614 52.8132 82.9921 50.711 83.195 48.4364C83.413 45.9995 85.3859 44.0114 85.6902 41.5897C85.8427 40.3223 85.5251 39.0429 84.7976 37.9939C84.5302 37.6696 84.3036 37.3136 84.1231 36.934C84.0356 36.7419 84.008 36.5279 84.0437 36.3199C84.0794 36.1119 84.1769 35.9194 84.3234 35.7675C84.484 35.6544 84.6622 35.5687 84.8508 35.5139C86.4839 34.885 87.3511 33.252 87.4703 31.5834C87.5134 30.9469 87.4703 30.3662 87.6453 29.7475C87.9166 28.7915 88.7585 27.7467 88.614 26.7248Z" fill="black"/>
</g>
<path opacity="0.1" d="M79.0134 116.219C79.448 116.693 80.0074 117.036 80.6277 117.207C81.2479 117.378 81.9038 117.371 82.5204 117.187" fill="black"/>
<path opacity="0.1" d="M95.2627 159.581C95.0203 159.777 94.7384 159.917 94.4363 159.994C94.1342 160.07 93.8192 160.079 93.513 160.022" fill="black"/>
<path opacity="0.1" d="M26.6639 167.452C30.4354 167.452 33.4928 166.936 33.4928 166.298C33.4928 165.661 30.4354 165.145 26.6639 165.145C22.8923 165.145 19.8349 165.661 19.8349 166.298C19.8349 166.936 22.8923 167.452 26.6639 167.452Z" fill="#241C7D"/>
<path d="M213.624 190.426C217.396 190.426 220.453 189.91 220.453 189.273C220.453 188.635 217.396 188.119 213.624 188.119C209.853 188.119 206.795 188.635 206.795 189.273C206.795 189.91 209.853 190.426 213.624 190.426Z" fill="#241C7D"/>
<path opacity="0.1" d="M213.624 168.218C217.396 168.218 220.453 167.701 220.453 167.064C220.453 166.427 217.396 165.91 213.624 165.91C209.853 165.91 206.795 166.427 206.795 167.064C206.795 167.701 209.853 168.218 213.624 168.218Z" fill="#241C7D"/>
<path opacity="0.1" d="M46.0274 178.166C49.7989 178.166 52.8564 177.649 52.8564 177.012C52.8564 176.375 49.7989 175.858 46.0274 175.858C42.2559 175.858 39.1985 176.375 39.1985 177.012C39.1985 177.649 42.2559 178.166 46.0274 178.166Z" fill="#241C7D"/>
<path d="M235.221 178.737C240.853 178.737 245.418 177.965 245.418 177.012C245.418 176.06 240.853 175.288 235.221 175.288C229.59 175.288 225.025 176.06 225.025 177.012C225.025 177.965 229.59 178.737 235.221 178.737Z" fill="#241C7D"/>
<path opacity="0.1" d="M88.6162 194.4C101.327 194.4 111.631 192.659 111.631 190.51C111.631 188.362 101.327 186.62 88.6162 186.62C75.9054 186.62 65.6012 188.362 65.6012 190.51C65.6012 192.659 75.9054 194.4 88.6162 194.4Z" fill="#241C7D"/>
<path d="M239.436 174.192C239.902 173.812 240.241 173.301 240.41 172.724C240.534 172.141 240.286 171.443 239.73 171.23C239.107 170.992 238.44 171.423 237.935 171.862C237.43 172.301 236.85 172.795 236.188 172.704C236.528 172.396 236.783 172.004 236.927 171.568C237.071 171.132 237.099 170.666 237.009 170.216C236.981 170.03 236.902 169.854 236.781 169.709C236.434 169.339 235.807 169.498 235.392 169.79C234.073 170.718 233.705 172.509 233.698 174.121C233.566 173.541 233.677 172.935 233.675 172.346C233.672 171.758 233.507 171.078 233.005 170.766C232.695 170.595 232.345 170.508 231.991 170.513C231.398 170.493 230.738 170.551 230.333 170.984C229.825 171.525 229.96 172.427 230.399 173.013C230.837 173.599 231.502 173.977 232.113 174.388C232.605 174.68 233.024 175.08 233.34 175.557C233.377 175.623 233.407 175.693 233.431 175.765H237.146C237.977 175.346 238.747 174.817 239.436 174.192Z" fill="#241C7D"/>
<path d="M217.841 186.514C218.306 186.134 218.645 185.622 218.812 185.046C218.937 184.462 218.691 183.778 218.133 183.552C217.509 183.314 216.842 183.745 216.337 184.183C215.833 184.622 215.252 185.117 214.59 185.025C214.931 184.717 215.185 184.326 215.329 183.89C215.473 183.454 215.502 182.988 215.412 182.538C215.385 182.351 215.306 182.175 215.184 182.031C214.839 181.66 214.21 181.82 213.797 182.112C212.478 183.04 212.11 184.83 212.103 186.443C211.968 185.862 212.08 185.256 212.077 184.668C212.075 184.079 211.91 183.4 211.408 183.088C211.097 182.921 210.747 182.838 210.394 182.847C209.8 182.827 209.141 182.885 208.735 183.319C208.228 183.859 208.362 184.762 208.801 185.347C209.24 185.933 209.904 186.311 210.518 186.722C211.009 187.014 211.427 187.414 211.743 187.891C211.779 187.957 211.81 188.027 211.834 188.099H215.549C216.381 187.676 217.152 187.143 217.841 186.514Z" fill="#241C7D"/>
<path d="M53.7617 163.638C53.7617 163.638 50.1989 151.54 54.4311 142.637C56.2333 138.912 56.7779 134.703 55.9831 130.642C55.5909 128.719 55.023 126.835 54.2866 125.015" stroke="#535461" stroke-width="2" stroke-miterlimit="10"/>
<path d="M56.9112 119.389C56.9112 120.872 54.2258 125.17 54.2258 125.17C54.2258 125.17 51.5429 120.872 51.5429 119.389C51.5319 119.029 51.5931 118.671 51.723 118.336C51.853 118.001 52.0489 117.695 52.2992 117.437C52.5496 117.178 52.8492 116.973 53.1804 116.833C53.5115 116.693 53.8675 116.621 54.2271 116.621C54.5867 116.621 54.9426 116.693 55.2738 116.833C55.6049 116.973 55.9046 117.178 56.1549 117.437C56.4052 117.695 56.6012 118.001 56.7311 118.336C56.861 118.671 56.9223 119.029 56.9112 119.389Z" fill="#241C7D"/>
<path d="M61.3489 127.602C60.5425 128.844 55.9527 130.995 55.9527 130.995C55.9527 130.995 56.0364 125.923 56.8428 124.683C57.239 124.107 57.8445 123.708 58.5304 123.571C59.2163 123.434 59.9285 123.57 60.5156 123.951C61.1026 124.331 61.5182 124.925 61.6738 125.607C61.8294 126.289 61.7129 127.005 61.3489 127.602Z" fill="#241C7D"/>
<path d="M61.1561 141.635C59.8324 142.305 54.7836 141.843 54.7836 141.843C54.7836 141.843 57.4132 137.509 58.7369 136.842C59.3696 136.546 60.093 136.507 60.7537 136.735C61.4143 136.963 61.96 137.44 62.2749 138.063C62.5898 138.687 62.6491 139.409 62.4402 140.076C62.2313 140.743 61.7706 141.302 61.1561 141.635Z" fill="#241C7D"/>
<path d="M58.6179 152.227C57.4261 153.107 52.3722 153.495 52.3722 153.495C52.3722 153.495 54.2335 148.778 55.4152 147.896C55.9887 147.513 56.6873 147.366 57.3664 147.484C58.0456 147.603 58.6532 147.978 59.0634 148.532C59.4737 149.086 59.6552 149.776 59.5704 150.46C59.4856 151.145 59.1409 151.77 58.6078 152.207L58.6179 152.227Z" fill="#241C7D"/>
<path d="M50.3155 131.284C51.3806 132.316 56.333 133.386 56.333 133.386C56.333 133.386 55.1209 128.464 54.0508 127.432C53.536 126.957 52.8562 126.702 52.1561 126.721C51.4561 126.741 50.7912 127.033 50.3034 127.535C49.8155 128.038 49.5432 128.711 49.5445 129.411C49.5459 130.111 49.8207 130.783 50.3105 131.284H50.3155Z" fill="#241C7D"/>
<path d="M47.5059 143.702C48.8296 144.369 53.8759 143.907 53.8759 143.907C53.8759 143.907 51.2462 139.574 49.9226 138.907C49.2887 138.603 48.561 138.56 47.8959 138.787C47.2307 139.014 46.6809 139.493 46.3646 140.12C46.0483 140.748 45.9907 141.474 46.2041 142.144C46.4174 142.814 46.8848 143.373 47.5059 143.702Z" fill="#241C7D"/>
<path d="M46.4281 156.145C47.6199 157.027 52.6738 157.413 52.6738 157.413C52.6738 157.413 50.8125 152.696 49.6308 151.816C49.0573 151.434 48.3587 151.287 47.6796 151.405C47.0005 151.523 46.3929 151.898 45.9826 152.452C45.5723 153.006 45.3908 153.697 45.4756 154.381C45.5604 155.065 45.9051 155.69 46.4382 156.127L46.4281 156.145Z" fill="#241C7D"/>
<path d="M45.3326 162.878C45.3326 162.878 49.6714 162.015 50.8303 160.867C51.9891 159.718 57.1926 157.71 57.7708 159.145C58.3489 160.58 65.5811 165.462 60.6641 166.324C55.7472 167.186 49.0932 167.472 47.6478 166.899C46.2024 166.326 45.3326 162.878 45.3326 162.878Z" fill="#A8A8A8"/>
<path opacity="0.2" d="M60.6717 165.784C55.7548 166.646 49.1009 166.932 47.6554 166.357C46.5524 165.921 45.7866 163.821 45.4848 162.84L45.3326 162.878C45.3326 162.878 46.1999 166.324 47.6478 166.899C49.0958 167.475 55.7472 167.186 60.6641 166.324C62.0842 166.07 62.4899 165.492 62.3378 164.752C62.2237 165.226 61.7292 165.599 60.6717 165.784Z" fill="black"/>
<path d="M215.021 150.429C215.021 150.429 216.416 152.252 214.38 154.994C212.344 157.735 210.665 160.065 211.337 161.782C211.337 161.782 214.41 156.672 216.916 156.601C219.421 156.53 217.768 153.495 215.021 150.429Z" fill="#241C7D"/>
<path opacity="0.1" d="M215.021 150.429C215.143 150.606 215.24 150.799 215.308 151.002C217.747 153.868 219.046 156.543 216.7 156.609C214.517 156.672 211.897 160.578 211.268 161.564C211.289 161.64 211.313 161.716 211.342 161.79C211.342 161.79 214.415 156.68 216.921 156.609C219.426 156.538 217.768 153.495 215.021 150.429Z" fill="black"/>
<path d="M217.613 152.752C217.613 153.394 217.539 153.913 217.451 153.913C217.362 153.913 217.291 153.406 217.291 152.752C217.291 152.098 217.38 152.412 217.468 152.412C217.557 152.412 217.613 152.11 217.613 152.752Z" fill="#FFD037"/>
<path d="M218.501 153.518C217.938 153.825 217.446 154.01 217.405 153.931C217.365 153.852 217.783 153.543 218.346 153.236C218.909 152.929 218.688 153.153 218.731 153.236C218.774 153.32 219.064 153.211 218.501 153.518Z" fill="#FFD037"/>
<path d="M207.665 150.429C207.665 150.429 206.27 152.252 208.307 154.994C210.343 157.735 212.022 160.065 211.35 161.782C211.35 161.782 208.279 156.672 205.771 156.601C203.263 156.53 204.914 153.495 207.665 150.429Z" fill="#241C7D"/>
<path opacity="0.1" d="M207.665 150.429C207.543 150.606 207.446 150.799 207.378 151.002C204.939 153.868 203.641 156.543 205.986 156.609C208.169 156.672 210.789 160.578 211.418 161.564C211.397 161.641 211.372 161.716 211.342 161.79C211.342 161.79 208.271 156.68 205.763 156.609C203.255 156.538 204.914 153.495 207.665 150.429Z" fill="black"/>
<path d="M205.073 152.752C205.073 153.394 205.147 153.913 205.236 153.913C205.324 153.913 205.395 153.406 205.395 152.752C205.395 152.098 205.307 152.412 205.218 152.412C205.129 152.412 205.073 152.11 205.073 152.752Z" fill="#FFD037"/>
<path d="M204.186 153.518C204.749 153.825 205.238 154.01 205.281 153.931C205.324 153.852 204.903 153.543 204.34 153.236C203.777 152.929 203.998 153.153 203.955 153.236C203.912 153.32 203.623 153.211 204.186 153.518Z" fill="#FFD037"/>
<path d="M205.517 161.551C205.517 161.551 209.412 161.43 210.589 160.595C211.765 159.761 216.581 158.762 216.873 160.088C217.164 161.414 222.725 166.755 218.328 166.79C213.931 166.826 208.111 166.106 206.94 165.393C205.768 164.68 205.517 161.551 205.517 161.551Z" fill="#A8A8A8"/>
<path opacity="0.2" d="M218.404 166.336C214.007 166.372 208.187 165.652 207.016 164.939C206.123 164.396 205.766 162.446 205.649 161.546H205.517C205.517 161.546 205.771 164.688 206.937 165.401C208.104 166.113 213.928 166.833 218.326 166.798C219.593 166.798 220.032 166.336 220.009 165.669C219.832 166.078 219.347 166.329 218.404 166.336Z" fill="black"/>
</g>
<defs>
<linearGradient id="paint0_linear" x1="134.542" y1="178.222" x2="134.542" y2="5.55341" gradientUnits="userSpaceOnUse">
<stop stop-color="#808080" stop-opacity="0.25"/>
<stop offset="0.54" stop-color="#808080" stop-opacity="0.12"/>
<stop offset="1" stop-color="#808080" stop-opacity="0.1"/>
</linearGradient>
<clipPath id="clip0">
<rect width="256" height="194.4" fill="white"/>
</clipPath>
</defs>
</svg>
