<svg
  width="181"
  height="111"
  viewBox="0 0 181 111"
  fill="none"
  xmlns="http://www.w3.org/2000/svg"
>
  <path d="M54 12H60V18H54V12Z" fill="#04ABFF" />
  <path d="M54 12H60V18H54V12Z" fill="#04ABFF" />
  <path d="M54 12H60V18H54V12Z" fill="#04ABFF" />
  <path d="M60 12H66V18H60V12Z" fill="#04ABFF" />
  <path d="M60 12H66V18H60V12Z" fill="#04ABFF" />
  <path d="M60 12H66V18H60V12Z" fill="#04ABFF" />
  <path d="M60 6H66V12H60V6Z" fill="#04ABFF" />
  <path d="M60 6H66V12H60V6Z" fill="#04ABFF" />
  <path d="M60 6H66V12H60V6Z" fill="#04ABFF" />
  <path d="M66 6H72V12H66V6Z" fill="#04ABFF" />
  <path d="M66 6H72V12H66V6Z" fill="#04ABFF" />
  <path d="M66 6H72V12H66V6Z" fill="#04ABFF" />
  <path d="M66 0H72V6H66V0Z" fill="#04ABFF" />
  <path d="M66 0H72V6H66V0Z" fill="#04ABFF" />
  <path d="M66 0H72V6H66V0Z" fill="#04ABFF" />
  <path d="M72 0H78V6H72V0Z" fill="#04ABFF" />
  <path d="M72 0H78V6H72V0Z" fill="#04ABFF" />
  <path d="M72 0H78V6H72V0Z" fill="#04ABFF" />
  <path d="M78 0H84V6H78V0Z" fill="#04ABFF" />
  <path d="M78 0H84V6H78V0Z" fill="#04ABFF" />
  <path d="M78 0H84V6H78V0Z" fill="#04ABFF" />
  <path d="M78 6H84V12H78V6Z" fill="#04ABFF" />
  <path d="M78 6H84V12H78V6Z" fill="#04ABFF" />
  <path d="M78 6H84V12H78V6Z" fill="#04ABFF" />
  <path d="M84 6H90V12H84V6Z" fill="#04ABFF" />
  <path d="M84 6H90V12H84V6Z" fill="#04ABFF" />
  <path d="M84 6H90V12H84V6Z" fill="#04ABFF" />
  <path d="M84 12H90V18H84V12Z" fill="#04ABFF" />
  <path d="M84 12H90V18H84V12Z" fill="#04ABFF" />
  <path d="M84 12H90V18H84V12Z" fill="#04ABFF" />
  <path d="M78 12H84V18H78V12Z" fill="#04ABFF" />
  <path d="M78 12H84V18H78V12Z" fill="#04ABFF" />
  <path d="M78 12H84V18H78V12Z" fill="#04ABFF" />
  <path d="M78 18H84V24H78V18Z" fill="#04ABFF" />
  <path d="M78 18H84V24H78V18Z" fill="#04ABFF" />
  <path d="M78 18H84V24H78V18Z" fill="#04ABFF" />
  <path d="M72 18H78V24H72V18Z" fill="#04ABFF" />
  <path d="M72 18H78V24H72V18Z" fill="#04ABFF" />
  <path d="M72 18H78V24H72V18Z" fill="#04ABFF" />
  <path d="M72 24H78V30H72V24Z" fill="#04ABFF" />
  <path d="M72 24H78V30H72V24Z" fill="#04ABFF" />
  <path d="M72 24H78V30H72V24Z" fill="#04ABFF" />
  <path d="M72 30H78V36H72V30Z" fill="#04ABFF" />
  <path d="M72 30H78V36H72V30Z" fill="#04ABFF" />
  <path d="M72 30H78V36H72V30Z" fill="#04ABFF" />
  <path d="M66 36H72V42H66V36Z" fill="#04ABFF" />
  <path d="M66 36H72V42H66V36Z" fill="#04ABFF" />
  <path d="M66 36H72V42H66V36Z" fill="#04ABFF" />
  <path d="M72 36H78V42H72V36Z" fill="#04ABFF" />
  <path d="M72 36H78V42H72V36Z" fill="#04ABFF" />
  <path d="M72 36H78V42H72V36Z" fill="#04ABFF" />
  <path d="M78 30H84V36H78V30Z" fill="#04ABFF" />
  <path d="M78 30H84V36H78V30Z" fill="#04ABFF" />
  <path d="M78 30H84V36H78V30Z" fill="#04ABFF" />
  <path d="M78 36H84V42H78V36Z" fill="#04ABFF" />
  <path d="M78 36H84V42H78V36Z" fill="#04ABFF" />
  <path d="M78 36H84V42H78V36Z" fill="#04ABFF" />
  <path d="M84 30H90V36H84V30Z" fill="#04ABFF" />
  <path d="M84 30H90V36H84V30Z" fill="#04ABFF" />
  <path d="M84 30H90V36H84V30Z" fill="#04ABFF" />
  <path d="M84 24H90V30H84V24Z" fill="#04ABFF" />
  <path d="M84 24H90V30H84V24Z" fill="#04ABFF" />
  <path d="M84 24H90V30H84V24Z" fill="#04ABFF" />
  <path d="M90 24H96V30H90V24Z" fill="#04ABFF" />
  <path d="M90 24H96V30H90V24Z" fill="#04ABFF" />
  <path d="M90 24H96V30H90V24Z" fill="#04ABFF" />
  <path d="M96 18H102V24H96V18Z" fill="#04ABFF" />
  <path d="M96 18H102V24H96V18Z" fill="#04ABFF" />
  <path d="M96 18H102V24H96V18Z" fill="#04ABFF" />
  <path d="M102 12H108V18H102V12Z" fill="#04ABFF" />
  <path d="M102 12H108V18H102V12Z" fill="#04ABFF" />
  <path d="M102 12H108V18H102V12Z" fill="#04ABFF" />
  <path d="M108 18H114V24H108V18Z" fill="#04ABFF" />
  <path d="M108 18H114V24H108V18Z" fill="#04ABFF" />
  <path d="M108 18H114V24H108V18Z" fill="#04ABFF" />
  <path d="M108 24H114V30H108V24Z" fill="#04ABFF" />
  <path d="M108 24H114V30H108V24Z" fill="#04ABFF" />
  <path d="M108 24H114V30H108V24Z" fill="#04ABFF" />
  <path d="M108 30H114V36H108V30Z" fill="#04ABFF" />
  <path d="M108 30H114V36H108V30Z" fill="#04ABFF" />
  <path d="M108 30H114V36H108V30Z" fill="#04ABFF" />
  <path d="M102 30H108V36H102V30Z" fill="#04ABFF" />
  <path d="M102 30H108V36H102V30Z" fill="#04ABFF" />
  <path d="M102 30H108V36H102V30Z" fill="#04ABFF" />
  <path d="M108 36H114V42H108V36Z" fill="#04ABFF" />
  <path d="M108 36H114V42H108V36Z" fill="#04ABFF" />
  <path d="M108 36H114V42H108V36Z" fill="#04ABFF" />
  <path d="M114 36H120V42H114V36Z" fill="#04ABFF" />
  <path d="M114 36H120V42H114V36Z" fill="#04ABFF" />
  <path d="M114 36H120V42H114V36Z" fill="#04ABFF" />
  <path d="M120 30H126V36H120V30Z" fill="#04ABFF" />
  <path d="M120 30H126V36H120V30Z" fill="#04ABFF" />
  <path d="M120 30H126V36H120V30Z" fill="#04ABFF" />
  <path d="M120 24H126V30H120V24Z" fill="#04ABFF" />
  <path d="M120 24H126V30H120V24Z" fill="#04ABFF" />
  <path d="M120 24H126V30H120V24Z" fill="#04ABFF" />
  <path d="M66 42H72V48H66V42Z" fill="#04ABFF" />
  <path d="M66 42H72V48H66V42Z" fill="#04ABFF" />
  <path d="M66 42H72V48H66V42Z" fill="#04ABFF" />
  <path d="M66 48H72V54H66V48Z" fill="#04ABFF" />
  <path d="M66 48H72V54H66V48Z" fill="#04ABFF" />
  <path d="M66 48H72V54H66V48Z" fill="#04ABFF" />
  <path d="M60 42H66V48H60V42Z" fill="#04ABFF" />
  <path d="M60 42H66V48H60V42Z" fill="#04ABFF" />
  <path d="M60 42H66V48H60V42Z" fill="#04ABFF" />
  <path d="M72 42H78V48H72V42Z" fill="#04ABFF" />
  <path d="M72 42H78V48H72V42Z" fill="#04ABFF" />
  <path d="M72 42H78V48H72V42Z" fill="#04ABFF" />
  <path d="M66 24H72V30H66V24Z" fill="#04ABFF" />
  <path d="M66 24H72V30H66V24Z" fill="#04ABFF" />
  <path d="M66 24H72V30H66V24Z" fill="#04ABFF" />
  <path
    d="M11.5439 101.92C14.8997 101.92 18.3002 100.891 20.4479 98.9221L17.9422 95.2532C16.5552 96.5955 14.0048 97.4009 12.1703 97.4009C8.50131 97.4009 6.30886 95.1189 5.95091 92.3896H22.0139V91.1367C22.0139 84.0672 17.629 79.2349 11.1859 79.2349C4.6086 79.2349 0 84.2909 0 90.5551C0 97.4903 4.96655 101.92 11.5439 101.92ZM16.5104 88.5416H5.86143C6.12989 86.3939 7.65118 83.754 11.1859 83.754C14.9444 83.754 16.3762 86.4834 16.5104 88.5416Z"
    fill="#04ABFF"
  />
  <path
    d="M34.9777 110.153C40.3022 110.153 46.6558 108.139 46.6558 99.9065V79.7718H40.9286V82.5459C39.1836 80.3535 36.8569 79.2349 34.2618 79.2349C28.8031 79.2349 24.7314 83.1724 24.7314 90.2419C24.7314 97.4456 28.8478 101.249 34.2618 101.249C36.9017 101.249 39.2284 99.996 40.9286 97.8483V100.041C40.9286 104.291 37.7071 105.499 34.9777 105.499C32.2483 105.499 29.9664 104.739 28.2214 102.815L25.671 106.931C28.4004 109.303 31.264 110.153 34.9777 110.153ZM36.0516 96.1928C32.83 96.1928 30.5928 93.9556 30.5928 90.2419C30.5928 86.5281 32.83 84.2909 36.0516 84.2909C37.9308 84.2909 39.989 85.3201 40.9286 86.7518V93.7319C39.989 95.1189 37.9308 96.1928 36.0516 96.1928Z"
    fill="#04ABFF"
  />
  <path
    d="M62.4486 101.92C65.8044 101.92 69.2049 100.891 71.3526 98.9221L68.8469 95.2532C67.4599 96.5955 64.9095 97.4009 63.075 97.4009C59.406 97.4009 57.2136 95.1189 56.8556 92.3896H72.9186V91.1367C72.9186 84.0672 68.5337 79.2349 62.0906 79.2349C55.5133 79.2349 50.9047 84.2909 50.9047 90.5551C50.9047 97.4903 55.8713 101.92 62.4486 101.92ZM67.4152 88.5416H56.7661C57.0346 86.3939 58.5559 83.754 62.0906 83.754C65.8491 83.754 67.2809 86.4834 67.4152 88.5416Z"
    fill="#04ABFF"
  />
  <path
    d="M97.2921 101.383V86.1254C97.2921 81.9195 95.0101 79.2349 90.2673 79.2349C86.7326 79.2349 84.0927 80.9352 82.7056 82.5907V79.7718H77.0232V101.383H82.7056V86.8413C83.6452 85.5438 85.3902 84.2909 87.6274 84.2909C90.0436 84.2909 91.6096 85.3201 91.6096 88.3179V101.383H97.2921Z"
    fill="#04ABFF"
  />
  <path
    d="M110.384 101.383C117.331 101.383 121.861 96.5843 121.861 90.2083C121.861 83.8659 117.331 79 110.384 79H102.733V101.383H110.384ZM110.384 98.8998H105.518V81.4833H110.384C115.921 81.4833 118.975 85.376 118.975 90.2083C118.975 95.0071 115.821 98.8998 110.384 98.8998Z"
    fill="#04ABFF"
  />
  <path
    d="M144.146 101.383L135.119 79H131.663L122.669 101.383H125.857L127.837 96.4165H138.978L140.958 101.383H144.146ZM138.139 93.9332H128.642L133.408 81.886L138.139 93.9332Z"
    fill="#04ABFF"
  />
  <path
    d="M153.134 101.383V81.4833H160.248V79H143.268V81.4833H150.348V101.383H153.134Z"
    fill="#04ABFF"
  />
  <path
    d="M180.85 101.383L171.823 79H168.367L159.373 101.383H162.561L164.541 96.4165H175.682L177.662 101.383H180.85ZM174.843 93.9332H165.346L170.112 81.886L174.843 93.9332Z"
    fill="#04ABFF"
  />
</svg>
